<svg width="28" height="28" viewBox="0 0 28 28" fill="none" xmlns="http://www.w3.org/2000/svg">
<ellipse cx="13.9995" cy="25" rx="13" ry="3" fill="#828282"/>
<path fill-rule="evenodd" clip-rule="evenodd" d="M24.7689 10.3034C24.7689 17.1622 16.8802 24.4547 14.6063 26.4143C14.2523 26.7194 13.7471 26.7194 13.3931 26.4143C11.1192 24.4547 3.23047 17.1622 3.23047 10.3034C3.23047 4.61299 8.05202 0 13.9997 0C19.9474 0 24.7689 4.61299 24.7689 10.3034Z" fill="#4F4F4F"/>
<path fill-rule="evenodd" clip-rule="evenodd" d="M15.0857 9.60254C14.6819 9.60254 14.3934 9.21176 14.5122 8.82589L15.6358 5.17914C15.8407 4.51404 14.9388 4.09194 14.5594 4.67537L9.21769 12.889C8.95811 13.2881 9.24455 13.8161 9.72068 13.8161H12.8288C13.2316 13.8161 13.52 14.2052 13.4028 14.5906L12.2874 18.2611C12.0859 18.9241 12.9823 19.3442 13.3629 18.7651L18.7732 10.5321C19.0353 10.1331 18.7492 9.60254 18.2717 9.60254H15.0857Z" fill="white"/>
</svg>
