<svg width="28" height="28" viewBox="0 0 28 28" fill="none" xmlns="http://www.w3.org/2000/svg">
<ellipse cx="14" cy="25" rx="13" ry="3" fill="#DDDDDD"/>
<path fill-rule="evenodd" clip-rule="evenodd" d="M24.7694 10.3034C24.7694 17.1622 16.8807 24.4547 14.6068 26.4143C14.2528 26.7194 13.7476 26.7194 13.3936 26.4143C11.1197 24.4547 3.23096 17.1622 3.23096 10.3034C3.23096 4.61299 8.05251 0 14.0002 0C19.9479 0 24.7694 4.61299 24.7694 10.3034Z" fill="#BDBDBD"/>
<path fill-rule="evenodd" clip-rule="evenodd" d="M15.0861 9.60257C14.6824 9.60257 14.3939 9.21179 14.5127 8.82592L15.6363 5.17917C15.8412 4.51407 14.9393 4.09197 14.5599 4.6754L9.21818 12.889C8.9586 13.2882 9.24504 13.8161 9.72116 13.8161H12.8293C13.2321 13.8161 13.5205 14.2052 13.4033 14.5906L12.2879 18.2611C12.0864 18.9241 12.9828 19.3442 13.3634 18.7651L18.7736 10.5321C19.0358 10.1331 18.7496 9.60257 18.2722 9.60257H15.0861Z" fill="white"/>
</svg>
