<svg width="152" height="18" viewBox="0 0 152 18" fill="none" xmlns="http://www.w3.org/2000/svg">
<path d="M2.95749 0.698242H8.24427C9.04228 0.698242 9.69066 0.997492 10.2892 1.54612C10.8877 2.09475 11.137 2.74313 11.137 3.49126C11.137 3.84039 11.0373 4.13963 10.8378 4.33913C10.6383 4.53863 10.3889 4.68827 10.0398 4.68827C9.74053 4.68827 9.49116 4.58852 9.34153 4.43889C9.19191 4.28926 9.04228 3.94013 8.94253 3.39151C8.89265 3.24188 8.84278 3.14214 8.69315 3.04239C8.54353 2.94264 8.3939 2.89275 8.24427 2.89275H2.95749C2.90762 2.89275 2.85774 2.94263 2.80787 2.99251C2.75799 3.04238 2.70811 3.09225 2.70811 3.14213C2.70811 3.192 2.70811 3.19201 2.70811 3.24189C2.70811 3.29176 2.75799 3.29175 2.75799 3.34163L10.4887 13.2668C10.738 13.5661 10.8877 13.8653 10.9874 14.1147C11.0872 14.4139 11.137 14.6633 11.137 14.9626C11.137 15.611 10.8877 16.2095 10.4388 16.6583C9.98991 17.1072 9.39141 17.3566 8.74303 17.3566H3.45624C2.70811 17.3566 2.00986 17.0573 1.41136 16.5087C0.812853 15.9601 0.563477 15.3117 0.563477 14.6134C0.563477 14.2643 0.663226 13.9651 0.862728 13.7656C1.06223 13.5661 1.31161 13.4164 1.66073 13.4164C1.95998 13.4164 2.20936 13.5162 2.35899 13.6658C2.50861 13.8154 2.65824 14.1646 2.80787 14.7132C2.85774 14.8628 2.90762 14.9626 3.05724 15.0623C3.20687 15.1621 3.35649 15.212 3.50612 15.212H8.7929C8.89265 15.212 8.94253 15.212 8.9924 15.1122C9.04228 15.0125 9.09215 15.0125 9.09215 14.9127C9.09215 14.8628 9.09215 14.8628 9.09215 14.8129C9.09215 14.7631 9.04228 14.7631 9.04228 14.7132L1.31161 4.78802C1.06223 4.48877 0.912604 4.18951 0.812853 3.94014C0.713103 3.64089 0.663227 3.3915 0.663227 3.09225C0.663227 2.44387 0.912603 1.84537 1.36148 1.39649C1.76048 0.947616 2.30911 0.698242 2.95749 0.698242Z" fill="#727171"/>
<path d="M2.95749 0.698242H8.24427C9.04228 0.698242 9.69066 0.997492 10.2892 1.54612C10.8877 2.09475 11.137 2.74313 11.137 3.49126C11.137 3.84039 11.0373 4.13963 10.8378 4.33913C10.6383 4.53863 10.3889 4.68827 10.0398 4.68827C9.74053 4.68827 9.49116 4.58852 9.34153 4.43889C9.19191 4.28926 9.04228 3.94013 8.94253 3.39151C8.89265 3.24188 8.84278 3.14214 8.69315 3.04239C8.54353 2.94264 8.3939 2.89275 8.24427 2.89275H2.95749C2.90762 2.89275 2.85774 2.94263 2.80787 2.99251C2.75799 3.04238 2.70811 3.09225 2.70811 3.14213C2.70811 3.192 2.70811 3.19201 2.70811 3.24189C2.70811 3.29176 2.75799 3.29175 2.75799 3.34163L10.4887 13.2668C10.738 13.5661 10.8877 13.8653 10.9874 14.1147C11.0872 14.4139 11.137 14.6633 11.137 14.9626C11.137 15.611 10.8877 16.2095 10.4388 16.6583C9.98991 17.1072 9.39141 17.3566 8.74303 17.3566H3.45624C2.70811 17.3566 2.00986 17.0573 1.41136 16.5087C0.812853 15.9601 0.563477 15.3117 0.563477 14.6134C0.563477 14.2643 0.663226 13.9651 0.862728 13.7656C1.06223 13.5661 1.31161 13.4164 1.66073 13.4164C1.95998 13.4164 2.20936 13.5162 2.35899 13.6658C2.50861 13.8154 2.65824 14.1646 2.80787 14.7132C2.85774 14.8628 2.90762 14.9626 3.05724 15.0623C3.20687 15.1621 3.35649 15.212 3.50612 15.212H8.7929C8.89265 15.212 8.94253 15.212 8.9924 15.1122C9.04228 15.0125 9.09215 15.0125 9.09215 14.9127C9.09215 14.8628 9.09215 14.8628 9.09215 14.8129C9.09215 14.7631 9.04228 14.7631 9.04228 14.7132L1.31161 4.78802C1.06223 4.48877 0.912604 4.18951 0.812853 3.94014C0.713103 3.64089 0.663227 3.3915 0.663227 3.09225C0.663227 2.44387 0.912603 1.84537 1.36148 1.39649C1.76048 0.947616 2.30911 0.698242 2.95749 0.698242Z" stroke="#727171" stroke-width="0.22" stroke-miterlimit="5"/>
<path d="M16.773 0.698242H24.1546C25.0523 0.698242 25.8005 0.997491 26.4488 1.64587C27.0972 2.29425 27.3965 3.04238 27.3965 3.94014V7.78054C27.3965 8.6783 27.0972 9.42642 26.4488 10.0748C25.8005 10.7232 25.0523 11.0224 24.1546 11.0224H18.9177V16.1097C18.9177 16.4588 18.8179 16.7581 18.6184 16.9576C18.4189 17.1571 18.1695 17.3067 17.8204 17.3067C17.5211 17.3067 17.2219 17.207 17.0224 16.9576C16.8229 16.7082 16.7231 16.4588 16.7231 16.1097V0.698242H16.773ZM18.9177 2.84287V8.82791H24.1047C24.4039 8.82791 24.6533 8.72817 24.8528 8.47879C25.0523 8.27929 25.1521 8.02992 25.1521 7.73067V3.89026C25.1521 3.59101 25.0523 3.34163 24.8528 3.14213C24.6533 2.94263 24.4039 2.79301 24.1047 2.79301H18.9177V2.84287Z" fill="#727171"/>
<path d="M16.773 0.698242H24.1546C25.0523 0.698242 25.8005 0.997491 26.4488 1.64587C27.0972 2.29425 27.3965 3.04238 27.3965 3.94014V7.78054C27.3965 8.6783 27.0972 9.42642 26.4488 10.0748C25.8005 10.7232 25.0523 11.0224 24.1546 11.0224H18.9177V16.1097C18.9177 16.4588 18.8179 16.7581 18.6184 16.9576C18.4189 17.1571 18.1695 17.3067 17.8204 17.3067C17.5211 17.3067 17.2219 17.207 17.0224 16.9576C16.8229 16.7082 16.7231 16.4588 16.7231 16.1097V0.698242H16.773ZM18.9177 2.84287V8.82791H24.1047C24.4039 8.82791 24.6533 8.72817 24.8528 8.47879C25.0523 8.27929 25.1521 8.02992 25.1521 7.73067V3.89026C25.1521 3.59101 25.0523 3.34163 24.8528 3.14213C24.6533 2.94263 24.4039 2.79301 24.1047 2.79301H18.9177V2.84287Z" stroke="#727171" stroke-width="0.22" stroke-miterlimit="5"/>
<path d="M39.4165 1.89526L43.4564 15.8105C43.4564 15.9102 43.5063 15.9601 43.5063 16.0598C43.5063 16.1596 43.5063 16.2095 43.5063 16.2594C43.5063 16.5586 43.4065 16.808 43.207 17.0075C43.0075 17.207 42.7582 17.3067 42.4589 17.3067C42.2095 17.3067 41.9602 17.207 41.8105 17.0573C41.611 16.9077 41.4614 16.6584 41.4115 16.409L40.6135 13.6658H35.9252L35.1272 16.3591C35.0275 16.6584 34.8779 16.9077 34.7282 17.0573C34.5786 17.207 34.3292 17.2569 34.03 17.2569C33.7307 17.2569 33.5312 17.1571 33.3317 16.9576C33.1322 16.7581 33.0325 16.5087 33.0325 16.2594C33.0325 16.1097 33.0325 16.0599 33.0325 15.9601C33.0325 15.9102 33.0325 15.8604 33.0823 15.7606L37.1222 1.84538C37.2719 1.3965 37.4215 1.09725 37.5711 0.897753C37.7207 0.698252 37.9701 0.648376 38.2694 0.648376C38.5686 0.648376 38.818 0.748127 38.9676 0.897753C39.1173 1.04738 39.3168 1.44638 39.4165 1.89526ZM38.2694 5.58603L36.5237 11.5212H39.9651L38.2694 5.58603Z" fill="#727171"/>
<path d="M39.4165 1.89526L43.4564 15.8105C43.4564 15.9102 43.5063 15.9601 43.5063 16.0598C43.5063 16.1596 43.5063 16.2095 43.5063 16.2594C43.5063 16.5586 43.4065 16.808 43.207 17.0075C43.0075 17.207 42.7582 17.3067 42.4589 17.3067C42.2095 17.3067 41.9602 17.207 41.8105 17.0573C41.611 16.9077 41.4614 16.6584 41.4115 16.409L40.6135 13.6658H35.9252L35.1272 16.3591C35.0275 16.6584 34.8779 16.9077 34.7282 17.0573C34.5786 17.207 34.3292 17.2569 34.03 17.2569C33.7307 17.2569 33.5312 17.1571 33.3317 16.9576C33.1322 16.7581 33.0325 16.5087 33.0325 16.2594C33.0325 16.1097 33.0325 16.0599 33.0325 15.9601C33.0325 15.9102 33.0325 15.8604 33.0823 15.7606L37.1222 1.84538C37.2719 1.3965 37.4215 1.09725 37.5711 0.897753C37.7207 0.698252 37.9701 0.648376 38.2694 0.648376C38.5686 0.648376 38.818 0.748127 38.9676 0.897753C39.1173 1.04738 39.3168 1.44638 39.4165 1.89526ZM38.2694 5.58603L36.5237 11.5212H39.9651L38.2694 5.58603Z" stroke="#727171" stroke-width="0.22" stroke-miterlimit="5"/>
<path d="M54.778 17.3067C54.1296 17.3067 53.5311 17.1571 53.0324 16.808C52.5336 16.4589 52.1346 15.9601 51.7855 15.2619L49.5411 10.8229C49.3915 10.5736 49.2917 10.2743 49.2418 9.97507C49.192 9.67582 49.1421 9.32669 49.1421 8.97756C49.1421 8.62844 49.192 8.27931 49.2418 7.93018C49.2917 7.63093 49.3915 7.33167 49.5411 7.08229L51.7855 2.64339C52.1346 1.94514 52.5336 1.44639 53.0324 1.09726C53.5311 0.748137 54.1296 0.598511 54.778 0.598511H58.5685C58.9177 0.598511 59.2169 0.698257 59.4164 0.897758C59.6159 1.09726 59.7655 1.34664 59.7655 1.69577C59.7655 1.99502 59.6658 2.24439 59.4164 2.4439C59.167 2.6434 58.9177 2.74315 58.5685 2.74315H54.778C54.5785 2.74315 54.379 2.79302 54.1795 2.94265C53.98 3.09227 53.8304 3.2419 53.7306 3.4414L51.5361 7.93018C51.4862 8.07981 51.4364 8.22943 51.3865 8.42893C51.3366 8.57856 51.3366 8.77806 51.3366 8.97756C51.3366 9.17707 51.3366 9.37657 51.3865 9.5262C51.4364 9.67582 51.4862 9.87532 51.5361 10.0249L53.7306 14.4638C53.8304 14.6634 53.98 14.8629 54.1795 14.9626C54.379 15.0624 54.5785 15.1621 54.778 15.1621H58.5685C58.9177 15.1621 59.2169 15.2619 59.4164 15.4614C59.6159 15.6609 59.7655 15.9102 59.7655 16.2594C59.7655 16.6085 59.6658 16.8579 59.4164 17.0574C59.167 17.2569 58.9177 17.3566 58.5685 17.3566H54.778V17.3067Z" fill="#727171"/>
<path d="M54.778 17.3067C54.1296 17.3067 53.5311 17.1571 53.0324 16.808C52.5336 16.4589 52.1346 15.9601 51.7855 15.2619L49.5411 10.8229C49.3915 10.5736 49.2917 10.2743 49.2418 9.97507C49.192 9.67582 49.1421 9.32669 49.1421 8.97756C49.1421 8.62844 49.192 8.27931 49.2418 7.93018C49.2917 7.63093 49.3915 7.33167 49.5411 7.08229L51.7855 2.64339C52.1346 1.94514 52.5336 1.44639 53.0324 1.09726C53.5311 0.748137 54.1296 0.598511 54.778 0.598511H58.5685C58.9177 0.598511 59.2169 0.698257 59.4164 0.897758C59.6159 1.09726 59.7655 1.34664 59.7655 1.69577C59.7655 1.99502 59.6658 2.24439 59.4164 2.4439C59.167 2.6434 58.9177 2.74315 58.5685 2.74315H54.778C54.5785 2.74315 54.379 2.79302 54.1795 2.94265C53.98 3.09227 53.8304 3.2419 53.7306 3.4414L51.5361 7.93018C51.4862 8.07981 51.4364 8.22943 51.3865 8.42893C51.3366 8.57856 51.3366 8.77806 51.3366 8.97756C51.3366 9.17707 51.3366 9.37657 51.3865 9.5262C51.4364 9.67582 51.4862 9.87532 51.5361 10.0249L53.7306 14.4638C53.8304 14.6634 53.98 14.8629 54.1795 14.9626C54.379 15.0624 54.5785 15.1621 54.778 15.1621H58.5685C58.9177 15.1621 59.2169 15.2619 59.4164 15.4614C59.6159 15.6609 59.7655 15.9102 59.7655 16.2594C59.7655 16.6085 59.6658 16.8579 59.4164 17.0574C59.167 17.2569 58.9177 17.3566 58.5685 17.3566H54.778V17.3067Z" stroke="#727171" stroke-width="0.22" stroke-miterlimit="5"/>
<path d="M92.0349 0.698242H99.4165C100.314 0.698242 101.062 0.997491 101.711 1.64587C102.359 2.29425 102.658 3.04238 102.658 3.94014V7.78054C102.658 8.6783 102.359 9.42642 101.711 10.0748C101.062 10.7232 100.314 11.0224 99.4165 11.0224H94.2294V16.1097C94.2294 16.4588 94.1297 16.7581 93.9302 16.9576C93.7307 17.1571 93.4813 17.3067 93.1322 17.3067C92.783 17.3067 92.5337 17.207 92.3342 16.9576C92.1347 16.7082 92.0349 16.4588 92.0349 16.1097V0.698242V0.698242ZM94.2294 2.84287V8.82791H99.4165C99.7157 8.82791 99.9651 8.72817 100.165 8.47879C100.364 8.27929 100.464 8.02992 100.464 7.73067V3.89026C100.464 3.59101 100.364 3.34163 100.165 3.14213C99.9651 2.94263 99.7157 2.79301 99.4165 2.79301H94.2294V2.84287Z" fill="#727171"/>
<path d="M114.628 1.89526L118.668 15.8105C118.668 15.9102 118.718 15.9601 118.718 16.0598C118.718 16.1596 118.718 16.2095 118.718 16.2594C118.718 16.5586 118.618 16.808 118.419 17.0075C118.219 17.207 117.97 17.3067 117.671 17.3067C117.421 17.3067 117.172 17.207 117.022 17.0573C116.823 16.9077 116.673 16.6584 116.623 16.409L115.825 13.6658H111.137L110.339 16.3591C110.239 16.6584 110.09 16.9077 109.94 17.0573C109.741 17.207 109.541 17.2569 109.242 17.2569C108.943 17.2569 108.743 17.1571 108.544 16.9576C108.344 16.7581 108.244 16.5087 108.244 16.2594C108.244 16.1097 108.244 16.0599 108.244 15.9601C108.244 15.9102 108.244 15.8604 108.294 15.7606L112.334 1.84538C112.484 1.3965 112.633 1.09725 112.783 0.897753C112.983 0.698252 113.182 0.648376 113.481 0.648376C113.781 0.648376 114.03 0.748127 114.18 0.897753C114.329 1.04738 114.479 1.44638 114.628 1.89526ZM113.431 5.58603L111.686 11.5212H115.127L113.431 5.58603Z" fill="#727171"/>
<path d="M124.204 0.698242H131.586C132.484 0.698242 133.232 0.997491 133.88 1.64587C134.529 2.29425 134.828 3.04238 134.828 3.94014V5.0374C134.828 5.93516 134.529 6.68327 133.88 7.33165C133.232 7.98003 132.484 8.27929 131.586 8.27929H130.439L134.628 15.611C134.728 15.7606 134.778 15.8603 134.778 15.9601C134.778 16.0598 134.828 16.1596 134.828 16.2593C134.828 16.5586 134.728 16.808 134.529 17.0075C134.329 17.207 134.08 17.3067 133.78 17.3067C133.581 17.3067 133.381 17.2568 133.182 17.1571C132.982 17.0573 132.883 16.9077 132.733 16.7082L127.895 8.32916H126.349V16.1596C126.349 16.5087 126.249 16.808 126.05 17.0075C125.85 17.207 125.601 17.3566 125.252 17.3566C124.953 17.3566 124.653 17.2569 124.454 17.0075C124.254 16.7581 124.155 16.5087 124.155 16.1596V0.698242H124.204ZM126.399 2.84287V6.13465H131.586C131.885 6.13465 132.135 6.03491 132.334 5.78553C132.534 5.53615 132.633 5.28678 132.633 5.0374V3.94014C132.633 3.64089 132.534 3.39151 132.284 3.19201C132.085 2.99251 131.835 2.84287 131.536 2.84287H126.399V2.84287Z" fill="#727171"/>
<path d="M92.0349 0.698242H99.4165C100.314 0.698242 101.062 0.997491 101.711 1.64587C102.359 2.29425 102.658 3.04238 102.658 3.94014V7.78054C102.658 8.6783 102.359 9.42642 101.711 10.0748C101.062 10.7232 100.314 11.0224 99.4165 11.0224H94.2294V16.1097C94.2294 16.4588 94.1297 16.7581 93.9302 16.9576C93.7307 17.1571 93.4813 17.3067 93.1322 17.3067C92.783 17.3067 92.5337 17.207 92.3342 16.9576C92.1347 16.7082 92.0349 16.4588 92.0349 16.1097V0.698242V0.698242ZM94.2294 2.84287V8.82791H99.4165C99.7157 8.82791 99.9651 8.72817 100.165 8.47879C100.364 8.27929 100.464 8.02992 100.464 7.73067V3.89026C100.464 3.59101 100.364 3.34163 100.165 3.14213C99.9651 2.94263 99.7157 2.79301 99.4165 2.79301H94.2294V2.84287Z" stroke="#727171" stroke-width="0.22" stroke-miterlimit="5"/>
<path d="M114.628 1.89526L118.668 15.8105C118.668 15.9102 118.718 15.9601 118.718 16.0598C118.718 16.1596 118.718 16.2095 118.718 16.2594C118.718 16.5586 118.618 16.808 118.419 17.0075C118.219 17.207 117.97 17.3067 117.671 17.3067C117.421 17.3067 117.172 17.207 117.022 17.0573C116.823 16.9077 116.673 16.6584 116.623 16.409L115.825 13.6658H111.137L110.339 16.3591C110.239 16.6584 110.09 16.9077 109.94 17.0573C109.741 17.207 109.541 17.2569 109.242 17.2569C108.943 17.2569 108.743 17.1571 108.544 16.9576C108.344 16.7581 108.244 16.5087 108.244 16.2594C108.244 16.1097 108.244 16.0599 108.244 15.9601C108.244 15.9102 108.244 15.8604 108.294 15.7606L112.334 1.84538C112.484 1.3965 112.633 1.09725 112.783 0.897753C112.983 0.698252 113.182 0.648376 113.481 0.648376C113.781 0.648376 114.03 0.748127 114.18 0.897753C114.329 1.04738 114.479 1.44638 114.628 1.89526ZM113.431 5.58603L111.686 11.5212H115.127L113.431 5.58603Z" stroke="#727171" stroke-width="0.22" stroke-miterlimit="5"/>
<path d="M124.204 0.698242H131.586C132.484 0.698242 133.232 0.997491 133.88 1.64587C134.529 2.29425 134.828 3.04238 134.828 3.94014V5.0374C134.828 5.93516 134.529 6.68327 133.88 7.33165C133.232 7.98003 132.484 8.27929 131.586 8.27929H130.439L134.628 15.611C134.728 15.7606 134.778 15.8603 134.778 15.9601C134.778 16.0598 134.828 16.1596 134.828 16.2593C134.828 16.5586 134.728 16.808 134.529 17.0075C134.329 17.207 134.08 17.3067 133.78 17.3067C133.581 17.3067 133.381 17.2568 133.182 17.1571C132.982 17.0573 132.883 16.9077 132.733 16.7082L127.895 8.32916H126.349V16.1596C126.349 16.5087 126.249 16.808 126.05 17.0075C125.85 17.207 125.601 17.3566 125.252 17.3566C124.953 17.3566 124.653 17.2569 124.454 17.0075C124.254 16.7581 124.155 16.5087 124.155 16.1596V0.698242H124.204ZM126.399 2.84287V6.13465H131.586C131.885 6.13465 132.135 6.03491 132.334 5.78553C132.534 5.53615 132.633 5.28678 132.633 5.0374V3.94014C132.633 3.64089 132.534 3.39151 132.284 3.19201C132.085 2.99251 131.835 2.84287 131.536 2.84287H126.399V2.84287Z" stroke="#727171" stroke-width="0.22" stroke-miterlimit="5"/>
<path d="M142.808 1.89526V6.68329L149.392 1.04738C149.541 0.897755 149.641 0.847879 149.791 0.798004C149.94 0.748129 150.04 0.698255 150.19 0.698255C150.489 0.698255 150.738 0.798008 150.938 0.99751C151.137 1.19701 151.237 1.44638 151.237 1.69576C151.237 1.89526 151.187 2.04489 151.137 2.19451C151.037 2.34414 150.938 2.49376 150.788 2.64339L143.357 8.97756L150.788 15.3616C150.938 15.5112 151.037 15.6608 151.137 15.8105C151.237 15.9601 151.287 16.1097 151.287 16.3092C151.287 16.6085 151.187 16.808 150.988 17.0075C150.788 17.207 150.539 17.3067 150.239 17.3067C150.09 17.3067 149.94 17.3067 149.84 17.207C149.741 17.1072 149.591 17.0574 149.441 16.9576L142.858 11.3217V16.1097C142.858 16.4588 142.758 16.7581 142.559 16.9576C142.359 17.1571 142.11 17.3067 141.761 17.3067C141.411 17.3067 141.162 17.207 140.963 16.9576C140.763 16.7082 140.663 16.4588 140.663 16.1097V1.89526C140.663 1.54613 140.763 1.24689 140.963 0.99751C141.162 0.798008 141.411 0.648376 141.761 0.648376C142.06 0.648376 142.309 0.748133 142.509 0.99751C142.708 1.24689 142.808 1.54613 142.808 1.89526Z" fill="#727171"/>
<path d="M142.808 1.89526V6.68329L149.392 1.04738C149.541 0.897755 149.641 0.847879 149.791 0.798004C149.94 0.748129 150.04 0.698255 150.19 0.698255C150.489 0.698255 150.738 0.798008 150.938 0.99751C151.137 1.19701 151.237 1.44638 151.237 1.69576C151.237 1.89526 151.187 2.04489 151.137 2.19451C151.037 2.34414 150.938 2.49376 150.788 2.64339L143.357 8.97756L150.788 15.3616C150.938 15.5112 151.037 15.6608 151.137 15.8105C151.237 15.9601 151.287 16.1097 151.287 16.3092C151.287 16.6085 151.187 16.808 150.988 17.0075C150.788 17.207 150.539 17.3067 150.239 17.3067C150.09 17.3067 149.94 17.3067 149.84 17.207C149.741 17.1072 149.591 17.0574 149.441 16.9576L142.858 11.3217V16.1097C142.858 16.4588 142.758 16.7581 142.559 16.9576C142.359 17.1571 142.11 17.3067 141.761 17.3067C141.411 17.3067 141.162 17.207 140.963 16.9576C140.763 16.7082 140.663 16.4588 140.663 16.1097V1.89526C140.663 1.54613 140.763 1.24689 140.963 0.99751C141.162 0.798008 141.411 0.648376 141.761 0.648376C142.06 0.648376 142.309 0.748133 142.509 0.99751C142.708 1.24689 142.808 1.54613 142.808 1.89526Z" stroke="#727171" stroke-width="0.22" stroke-miterlimit="5"/>
<path fill-rule="evenodd" clip-rule="evenodd" d="M66.4988 0.149597H75.0773C75.6259 0.149597 76.0748 0.598475 76.0748 1.1471C76.0748 1.69573 75.6259 2.14461 75.0773 2.14461H66.4988C65.9501 2.14461 65.5013 1.69573 65.5013 1.1471C65.4514 0.598475 65.9501 0.149597 66.4988 0.149597ZM66.4988 7.4314H75.0773C75.6259 7.4314 76.0748 7.88027 76.0748 8.4289C76.0748 8.97753 75.6259 9.42641 75.0773 9.42641H66.4988C65.9501 9.42641 65.5013 8.97753 65.5013 8.4289C65.4514 7.88027 65.9501 7.4314 66.4988 7.4314ZM66.4988 14.6633H75.0773C75.6259 14.6633 76.0748 15.1122 76.0748 15.6608C76.0748 16.2095 75.6259 16.6583 75.0773 16.6583H66.4988C65.9501 16.6583 65.5013 16.2095 65.5013 15.6608C65.4514 15.1122 65.9501 14.6633 66.4988 14.6633Z" fill="#727171"/>
<path d="M75.0772 16.808H66.4987C65.8503 16.808 65.3516 16.3092 65.3516 15.6608C65.3516 15.0125 65.8503 14.5137 66.4987 14.5137H75.0772C75.7256 14.5137 76.2244 15.0125 76.2244 15.6608C76.2244 16.3092 75.6758 16.808 75.0772 16.808ZM66.4987 14.813C65.9999 14.813 65.6508 15.212 65.6508 15.6608C65.6508 16.1596 66.0498 16.5087 66.4987 16.5087H75.0772C75.576 16.5087 75.9251 16.1097 75.9251 15.6608C75.9251 15.1621 75.5261 14.813 75.0772 14.813H66.4987ZM75.0772 9.57605H66.4987C65.8503 9.57605 65.3516 9.0773 65.3516 8.42892C65.3516 7.78055 65.8503 7.2818 66.4987 7.2818H75.0772C75.7256 7.2818 76.2244 7.78055 76.2244 8.42892C76.2244 9.02743 75.6758 9.57605 75.0772 9.57605ZM66.4987 7.53117C65.9999 7.53117 65.6508 7.93017 65.6508 8.37905C65.6508 8.8778 66.0498 9.22693 66.4987 9.22693H75.0772C75.576 9.22693 75.9251 8.82792 75.9251 8.37905C75.9251 7.88029 75.5261 7.53117 75.0772 7.53117H66.4987ZM75.0772 2.29427H66.4987C65.8503 2.29427 65.3516 1.79551 65.3516 1.14713C65.3516 0.498747 65.8503 0 66.4987 0H75.0772C75.7256 0 76.2244 0.498747 76.2244 1.14713C76.2244 1.79551 75.6758 2.29427 75.0772 2.29427ZM66.4987 0.249377C65.9999 0.249377 65.6508 0.648378 65.6508 1.09726C65.6508 1.59601 66.0498 1.94513 66.4987 1.94513H75.0772C75.576 1.94513 75.9251 1.54613 75.9251 1.09726C75.9251 0.598502 75.5261 0.249377 75.0772 0.249377H66.4987V0.249377Z" fill="#727171"/>
</svg>
