<svg width="40" height="41" viewBox="0 0 40 41" fill="none" xmlns="http://www.w3.org/2000/svg">
<circle cx="20" cy="20.5" r="20" fill="#769EFF"/>
<rect x="7" y="20.5" width="18.3848" height="18.3848" rx="3" transform="rotate(-45 7 20.5)" fill="white"/>
<path d="M27.0766 19.3545C27.2479 19.2013 27.2479 18.9102 27.0766 18.7569L22.8194 14.9479C22.3707 14.5464 21.7056 14.9033 21.7056 15.5455L21.7056 19.0557L21.7056 22.566C21.7056 23.2082 22.3707 23.5651 22.8194 23.1636L27.0766 19.3545Z" fill="#769EFF"/>
<path fill-rule="evenodd" clip-rule="evenodd" d="M14.373 20.8889C14.373 19.2015 15.7409 17.8336 17.4283 17.8336H22.3278C22.6591 17.8336 22.9278 18.1023 22.9278 18.4336V19.6778C22.9278 20.0092 22.6591 20.2778 22.3278 20.2778H17.4283C17.0908 20.2778 16.8173 20.5514 16.8173 20.8889V24.5663C16.8173 24.8976 16.5486 25.1663 16.2173 25.1663H14.973C14.6417 25.1663 14.373 24.8976 14.373 24.5663V20.8889Z" fill="#769EFF"/>
</svg>
