<svg width="36" height="36" viewBox="0 0 36 36" fill="none" xmlns="http://www.w3.org/2000/svg">
<circle cx="18" cy="18" r="18" fill="white"/>
<g clip-path="url(#clip0_256_788)">
<path d="M12.9892 19.8776L12.3626 22.2166L10.0726 22.2651C9.3882 20.9957 9 19.5434 9 18C9 16.5076 9.36295 15.1002 10.0063 13.861H10.0068L12.0456 14.2348L12.9387 16.2613C12.7518 16.8063 12.6499 17.3913 12.6499 18C12.65 18.6607 12.7696 19.2936 12.9892 19.8776Z" fill="#FBBB00"/>
<path d="M26.8426 16.3187C26.946 16.8631 26.9999 17.4254 26.9999 18C26.9999 18.6444 26.9321 19.2729 26.8031 19.8791C26.365 21.9422 25.2202 23.7437 23.6343 25.0185L23.6338 25.018L21.0659 24.887L20.7024 22.6182C21.7547 22.0011 22.5771 21.0353 23.0103 19.8791H18.1978V16.3187H23.0805H26.8426Z" fill="#518EF8"/>
<path d="M23.6338 25.018L23.6343 25.0185C22.092 26.2582 20.1327 27 17.9999 27C14.5725 27 11.5926 25.0843 10.0725 22.2651L12.9891 19.8777C13.7492 21.9061 15.7059 23.3501 17.9999 23.3501C18.986 23.3501 19.9097 23.0835 20.7024 22.6182L23.6338 25.018Z" fill="#28B446"/>
<path d="M23.7447 11.072L20.8291 13.4589C20.0087 12.9461 19.039 12.6499 18 12.6499C15.6541 12.6499 13.6607 14.1601 12.9388 16.2613L10.0068 13.861H10.0063C11.5042 10.9731 14.5217 9 18 9C20.1838 9 22.186 9.77787 23.7447 11.072Z" fill="#F14336"/>
</g>
<defs>
<clipPath id="clip0_256_788">
<rect width="18" height="18" fill="white" transform="translate(9 9)"/>
</clipPath>
</defs>
</svg>
