<svg width="36" height="36" viewBox="0 0 36 36" fill="none" xmlns="http://www.w3.org/2000/svg">
<rect width="36" height="36" rx="18" fill="#00C300"/>
<path d="M26.9075 12.6259C27.8264 13.8907 28.2858 15.2906 28.2858 16.8256C28.2858 18.6633 27.5561 20.3713 26.1022 21.9496C24.7185 23.5116 22.7186 25.1223 20.1134 26.7654C18.6973 27.6464 17.8217 28.0842 17.4758 28.0842H17.3298C17.1677 28.0842 17.0812 27.9491 17.0812 27.6735C17.2163 26.7979 17.2866 26.252 17.2866 26.0466C17.2866 25.852 17.2596 25.6898 17.2163 25.5547C17.1677 25.4196 17.0542 25.3115 16.865 25.2358C16.6812 25.1601 16.4975 25.1007 16.3191 25.0629C13.795 24.7061 11.7303 23.7602 10.125 22.2198C8.5197 20.6794 7.71436 18.8849 7.71436 16.8256C7.71436 15.2906 8.17919 13.8907 9.10344 12.6259C10.0277 11.3612 11.2708 10.3558 12.8275 9.60996C14.3841 8.86407 16.1191 8.48572 18.0271 8.48572C19.8918 8.48572 21.6106 8.85866 23.1727 9.60996C24.7455 10.3613 25.9833 11.3666 26.9075 12.6259ZM25.0104 17.5661C25.0536 17.5229 25.0698 17.3553 25.0698 17.0526C25.0698 16.6797 25.0104 16.4959 24.886 16.4959H22.8862V15.7338H24.886C25.0104 15.7338 25.0698 15.5555 25.0698 15.1987C25.0698 14.815 25.0104 14.6204 24.886 14.6204C22.897 14.6204 21.8809 14.6366 21.8484 14.669C21.816 14.7015 21.7998 15.496 21.7998 17.0472C21.7998 18.5985 21.816 19.393 21.8484 19.4362C21.8809 19.4795 21.9295 19.4957 21.9836 19.4957H24.886C25.0104 19.4957 25.0698 19.3011 25.0698 18.9174C25.0698 18.5444 25.0104 18.3607 24.886 18.3607H22.8862V17.6202C24.2645 17.631 24.9671 17.6094 25.0104 17.5661ZM21.1025 17.0526C21.1025 15.5176 21.0809 14.7285 21.0431 14.6853C20.9998 14.642 20.9512 14.6258 20.8971 14.6258C20.3621 14.6258 20.0756 14.6474 20.0323 14.6853C19.9891 14.7285 19.9729 15.6527 19.9729 17.4634C18.6 15.5987 17.9028 14.6582 17.8812 14.6528C17.8595 14.6474 17.8379 14.642 17.8109 14.642L17.4001 14.6204C17.0866 14.6204 16.9137 14.642 16.8866 14.6798C16.8596 14.7231 16.8434 15.5122 16.8434 17.0472C16.8434 18.5985 16.8596 19.393 16.8866 19.4362C16.9137 19.4795 17.0866 19.4957 17.4001 19.4957C17.7731 19.4957 17.9568 19.4254 17.9568 19.2903V16.6148L20.054 19.4579C20.108 19.4849 20.2648 19.5011 20.5296 19.5011C20.8323 19.5011 21.0052 19.4795 21.0431 19.4417C21.0809 19.3984 21.1025 18.6039 21.1025 17.0526ZM16.1191 17.0526C16.1191 15.5176 16.1029 14.7285 16.0705 14.6853C16.0381 14.642 15.9894 14.6258 15.9354 14.6258C15.4003 14.6258 15.1084 14.6474 15.0597 14.6853C15.0111 14.7285 14.9895 15.5176 14.9895 17.0526C14.9895 18.6039 15.0111 19.3984 15.0597 19.4417C15.1084 19.4849 15.2814 19.5011 15.584 19.5011C15.8705 19.5011 16.0327 19.4795 16.0705 19.4417C16.1029 19.3984 16.1191 18.6039 16.1191 17.0526ZM14.3679 18.9282C14.3679 18.5552 14.2976 18.3715 14.1625 18.3715H12.2275V14.8096C12.2275 14.6853 12.0438 14.6258 11.6708 14.6258C11.2871 14.6258 11.0925 14.6853 11.0925 14.8096V19.2957C11.0925 19.4308 11.1519 19.5011 11.2762 19.5011H14.1571C14.2976 19.5011 14.3679 19.3119 14.3679 18.9282Z" fill="white"/>
</svg>
