<svg width="16" height="17" viewBox="0 0 16 17" fill="none" xmlns="http://www.w3.org/2000/svg">
<path fill-rule="evenodd" clip-rule="evenodd" d="M15 6.62317C15 10.4906 10.7136 14.59 9.10247 15.9943C8.75445 16.2977 8.24556 16.2977 7.89753 15.9943C6.28638 14.59 2 10.4906 2 6.62317C2 3.24144 4.91015 0.5 8.5 0.5C12.0899 0.5 15 3.24144 15 6.62317Z" fill="#EB5757"/>
<path fill-rule="evenodd" clip-rule="evenodd" d="M9.20943 6.20666C8.93951 6.20666 8.74707 5.94482 8.82768 5.68722L9.40433 3.84429C9.54269 3.4021 8.94418 3.11777 8.68882 3.50439L5.65981 8.09028C5.48416 8.35621 5.67488 8.71073 5.99358 8.71073H7.73994C8.0092 8.71073 8.20156 8.97141 8.12214 9.2287L7.54655 11.0936C7.4105 11.5344 8.00538 11.8173 8.26146 11.4336L11.3348 6.82872C11.5122 6.56291 11.3217 6.20666 11.0021 6.20666H9.20943Z" fill="white"/>
</svg>
