<svg width="100%" height="100%" viewBox="0 0 180 168" fill="none" xmlns="http://www.w3.org/2000/svg">
<path d="M16.9575 126.683H22.2443C23.0423 126.683 23.6907 126.983 24.2892 127.531C24.8877 128.08 25.137 128.728 25.137 129.476C25.137 129.825 25.0373 130.125 24.8378 130.324C24.6383 130.524 24.3889 130.673 24.0398 130.673C23.7405 130.673 23.4912 130.574 23.3415 130.424C23.1919 130.274 23.0423 129.925 22.9425 129.377C22.8927 129.227 22.8428 129.127 22.6932 129.027C22.5435 128.928 22.3939 128.878 22.2443 128.878H16.9575C16.9076 128.878 16.8577 128.928 16.8079 128.978C16.758 129.027 16.7081 129.077 16.7081 129.127C16.7081 129.177 16.7081 129.177 16.7081 129.227C16.7081 129.277 16.758 129.277 16.758 129.327L24.4887 139.252C24.738 139.551 24.8877 139.85 24.9874 140.1C25.0872 140.399 25.137 140.648 25.137 140.948C25.137 141.596 24.8877 142.195 24.4388 142.643C23.9899 143.092 23.3914 143.342 22.743 143.342H17.4562C16.7081 143.342 16.0099 143.042 15.4114 142.494C14.8129 141.945 14.5635 141.297 14.5635 140.598C14.5635 140.249 14.6632 139.95 14.8627 139.751C15.0622 139.551 15.3116 139.401 15.6607 139.401C15.96 139.401 16.2094 139.501 16.359 139.651C16.5086 139.8 16.6582 140.15 16.8079 140.698C16.8577 140.848 16.9076 140.948 17.0572 141.047C17.2069 141.147 17.3565 141.197 17.5061 141.197H22.7929C22.8927 141.197 22.9425 141.197 22.9924 141.097C23.0423 140.997 23.0922 140.998 23.0922 140.898C23.0922 140.848 23.0922 140.848 23.0922 140.798C23.0922 140.748 23.0423 140.748 23.0423 140.698L15.3116 130.773C15.0622 130.474 14.9126 130.175 14.8129 129.925C14.7131 129.626 14.6632 129.377 14.6632 129.077C14.6632 128.429 14.9126 127.83 15.3615 127.382C15.7605 126.933 16.3091 126.683 16.9575 126.683Z" fill="#727171"/>
<path d="M16.9575 126.683H22.2443C23.0423 126.683 23.6907 126.983 24.2892 127.531C24.8877 128.08 25.137 128.728 25.137 129.476C25.137 129.825 25.0373 130.125 24.8378 130.324C24.6383 130.524 24.3889 130.673 24.0398 130.673C23.7405 130.673 23.4912 130.574 23.3415 130.424C23.1919 130.274 23.0423 129.925 22.9425 129.377C22.8927 129.227 22.8428 129.127 22.6932 129.027C22.5435 128.928 22.3939 128.878 22.2443 128.878H16.9575C16.9076 128.878 16.8577 128.928 16.8079 128.978C16.758 129.027 16.7081 129.077 16.7081 129.127C16.7081 129.177 16.7081 129.177 16.7081 129.227C16.7081 129.277 16.758 129.277 16.758 129.327L24.4887 139.252C24.738 139.551 24.8877 139.85 24.9874 140.1C25.0872 140.399 25.137 140.648 25.137 140.948C25.137 141.596 24.8877 142.195 24.4388 142.643C23.9899 143.092 23.3914 143.342 22.743 143.342H17.4562C16.7081 143.342 16.0099 143.042 15.4114 142.494C14.8129 141.945 14.5635 141.297 14.5635 140.598C14.5635 140.249 14.6632 139.95 14.8627 139.751C15.0622 139.551 15.3116 139.401 15.6607 139.401C15.96 139.401 16.2094 139.501 16.359 139.651C16.5086 139.8 16.6582 140.15 16.8079 140.698C16.8577 140.848 16.9076 140.948 17.0572 141.047C17.2069 141.147 17.3565 141.197 17.5061 141.197H22.7929C22.8927 141.197 22.9425 141.197 22.9924 141.097C23.0423 140.997 23.0922 140.998 23.0922 140.898C23.0922 140.848 23.0922 140.848 23.0922 140.798C23.0922 140.748 23.0423 140.748 23.0423 140.698L15.3116 130.773C15.0622 130.474 14.9126 130.175 14.8129 129.925C14.7131 129.626 14.6632 129.377 14.6632 129.077C14.6632 128.429 14.9126 127.83 15.3615 127.382C15.7605 126.933 16.3091 126.683 16.9575 126.683Z" stroke="#727171" stroke-width="0.22" stroke-miterlimit="5"/>
<path d="M30.773 126.683H38.1546C39.0523 126.683 39.8005 126.983 40.4488 127.631C41.0972 128.279 41.3965 129.027 41.3965 129.925V133.766C41.3965 134.663 41.0972 135.411 40.4488 136.06C39.8005 136.708 39.0523 137.007 38.1546 137.007H32.9177V142.095C32.9177 142.444 32.8179 142.743 32.6184 142.943C32.4189 143.142 32.1695 143.292 31.8204 143.292C31.5211 143.292 31.2219 143.192 31.0224 142.943C30.8229 142.693 30.7231 142.444 30.7231 142.095V126.683H30.773ZM32.9177 128.828V134.813H38.1047C38.4039 134.813 38.6533 134.713 38.8528 134.464C39.0523 134.264 39.1521 134.015 39.1521 133.716V129.875C39.1521 129.576 39.0523 129.327 38.8528 129.127C38.6533 128.928 38.4039 128.778 38.1047 128.778H32.9177V128.828Z" fill="#727171"/>
<path d="M30.773 126.683H38.1546C39.0523 126.683 39.8005 126.983 40.4488 127.631C41.0972 128.279 41.3965 129.027 41.3965 129.925V133.766C41.3965 134.663 41.0972 135.411 40.4488 136.06C39.8005 136.708 39.0523 137.007 38.1546 137.007H32.9177V142.095C32.9177 142.444 32.8179 142.743 32.6184 142.943C32.4189 143.142 32.1695 143.292 31.8204 143.292C31.5211 143.292 31.2219 143.192 31.0224 142.943C30.8229 142.693 30.7231 142.444 30.7231 142.095V126.683H30.773ZM32.9177 128.828V134.813H38.1047C38.4039 134.813 38.6533 134.713 38.8528 134.464C39.0523 134.264 39.1521 134.015 39.1521 133.716V129.875C39.1521 129.576 39.0523 129.327 38.8528 129.127C38.6533 128.928 38.4039 128.778 38.1047 128.778H32.9177V128.828Z" stroke="#727171" stroke-width="0.22" stroke-miterlimit="5"/>
<path d="M53.4165 127.88L57.4564 141.796C57.4564 141.895 57.5063 141.945 57.5063 142.045C57.5063 142.145 57.5063 142.195 57.5063 142.244C57.5063 142.544 57.4065 142.793 57.207 142.993C57.0075 143.192 56.7582 143.292 56.4589 143.292C56.2095 143.292 55.9602 143.192 55.8105 143.042C55.611 142.893 55.4614 142.643 55.4115 142.394L54.6135 139.651H49.9252L49.1272 142.344C49.0275 142.643 48.8779 142.893 48.7282 143.042C48.5786 143.192 48.3292 143.242 48.03 143.242C47.7307 143.242 47.5312 143.142 47.3317 142.943C47.1322 142.743 47.0325 142.494 47.0325 142.244C47.0325 142.095 47.0325 142.045 47.0325 141.945C47.0325 141.895 47.0325 141.845 47.0823 141.746L51.1222 127.83C51.2719 127.382 51.4215 127.082 51.5711 126.883C51.7207 126.683 51.9701 126.633 52.2694 126.633C52.5686 126.633 52.818 126.733 52.9676 126.883C53.1173 127.032 53.3168 127.431 53.4165 127.88ZM52.2694 131.571L50.5237 137.506H53.9651L52.2694 131.571Z" fill="#727171"/>
<path d="M53.4165 127.88L57.4564 141.796C57.4564 141.895 57.5063 141.945 57.5063 142.045C57.5063 142.145 57.5063 142.195 57.5063 142.244C57.5063 142.544 57.4065 142.793 57.207 142.993C57.0075 143.192 56.7582 143.292 56.4589 143.292C56.2095 143.292 55.9602 143.192 55.8105 143.042C55.611 142.893 55.4614 142.643 55.4115 142.394L54.6135 139.651H49.9252L49.1272 142.344C49.0275 142.643 48.8779 142.893 48.7282 143.042C48.5786 143.192 48.3292 143.242 48.03 143.242C47.7307 143.242 47.5312 143.142 47.3317 142.943C47.1322 142.743 47.0325 142.494 47.0325 142.244C47.0325 142.095 47.0325 142.045 47.0325 141.945C47.0325 141.895 47.0325 141.845 47.0823 141.746L51.1222 127.83C51.2719 127.382 51.4215 127.082 51.5711 126.883C51.7207 126.683 51.9701 126.633 52.2694 126.633C52.5686 126.633 52.818 126.733 52.9676 126.883C53.1173 127.032 53.3168 127.431 53.4165 127.88ZM52.2694 131.571L50.5237 137.506H53.9651L52.2694 131.571Z" stroke="#727171" stroke-width="0.22" stroke-miterlimit="5"/>
<path d="M68.778 143.292C68.1296 143.292 67.5311 143.142 67.0324 142.793C66.5336 142.444 66.1346 141.945 65.7855 141.247L63.5411 136.808C63.3915 136.559 63.2917 136.259 63.2418 135.96C63.192 135.661 63.1421 135.312 63.1421 134.963C63.1421 134.613 63.192 134.264 63.2418 133.915C63.2917 133.616 63.3915 133.317 63.5411 133.067L65.7855 128.628C66.1346 127.93 66.5336 127.431 67.0324 127.082C67.5311 126.733 68.1296 126.584 68.778 126.584H72.5685C72.9177 126.584 73.2169 126.683 73.4164 126.883C73.6159 127.082 73.7655 127.332 73.7655 127.681C73.7655 127.98 73.6658 128.229 73.4164 128.429C73.167 128.628 72.9177 128.728 72.5685 128.728H68.778C68.5785 128.728 68.379 128.778 68.1795 128.928C67.98 129.077 67.8304 129.227 67.7306 129.426L65.5361 133.915C65.4862 134.065 65.4364 134.214 65.3865 134.414C65.3366 134.564 65.3366 134.763 65.3366 134.963C65.3366 135.162 65.3366 135.362 65.3865 135.511C65.4364 135.661 65.4862 135.86 65.5361 136.01L67.7306 140.449C67.8304 140.648 67.98 140.848 68.1795 140.948C68.379 141.047 68.5785 141.147 68.778 141.147H72.5685C72.9177 141.147 73.2169 141.247 73.4164 141.446C73.6159 141.646 73.7655 141.895 73.7655 142.244C73.7655 142.594 73.6658 142.843 73.4164 143.042C73.167 143.242 72.9177 143.342 72.5685 143.342H68.778V143.292Z" fill="#727171"/>
<path d="M68.778 143.292C68.1296 143.292 67.5311 143.142 67.0324 142.793C66.5336 142.444 66.1346 141.945 65.7855 141.247L63.5411 136.808C63.3915 136.559 63.2917 136.259 63.2418 135.96C63.192 135.661 63.1421 135.312 63.1421 134.963C63.1421 134.613 63.192 134.264 63.2418 133.915C63.2917 133.616 63.3915 133.317 63.5411 133.067L65.7855 128.628C66.1346 127.93 66.5336 127.431 67.0324 127.082C67.5311 126.733 68.1296 126.584 68.778 126.584H72.5685C72.9177 126.584 73.2169 126.683 73.4164 126.883C73.6159 127.082 73.7655 127.332 73.7655 127.681C73.7655 127.98 73.6658 128.229 73.4164 128.429C73.167 128.628 72.9177 128.728 72.5685 128.728H68.778C68.5785 128.728 68.379 128.778 68.1795 128.928C67.98 129.077 67.8304 129.227 67.7306 129.426L65.5361 133.915C65.4862 134.065 65.4364 134.214 65.3865 134.414C65.3366 134.564 65.3366 134.763 65.3366 134.963C65.3366 135.162 65.3366 135.362 65.3865 135.511C65.4364 135.661 65.4862 135.86 65.5361 136.01L67.7306 140.449C67.8304 140.648 67.98 140.848 68.1795 140.948C68.379 141.047 68.5785 141.147 68.778 141.147H72.5685C72.9177 141.147 73.2169 141.247 73.4164 141.446C73.6159 141.646 73.7655 141.895 73.7655 142.244C73.7655 142.594 73.6658 142.843 73.4164 143.042C73.167 143.242 72.9177 143.342 72.5685 143.342H68.778V143.292Z" stroke="#727171" stroke-width="0.22" stroke-miterlimit="5"/>
<path d="M106.035 126.683H113.416C114.314 126.683 115.062 126.983 115.711 127.631C116.359 128.279 116.658 129.027 116.658 129.925V133.766C116.658 134.663 116.359 135.411 115.711 136.06C115.062 136.708 114.314 137.008 113.416 137.008H108.229V142.095C108.229 142.444 108.13 142.743 107.93 142.943C107.731 143.142 107.481 143.292 107.132 143.292C106.783 143.292 106.534 143.192 106.334 142.943C106.135 142.693 106.035 142.444 106.035 142.095V126.683V126.683ZM108.229 128.828V134.813H113.416C113.716 134.813 113.965 134.713 114.165 134.464C114.364 134.264 114.464 134.015 114.464 133.716V129.875C114.464 129.576 114.364 129.327 114.165 129.127C113.965 128.928 113.716 128.778 113.416 128.778H108.229V128.828Z" fill="#727171"/>
<path d="M128.628 127.88L132.668 141.796C132.668 141.895 132.718 141.945 132.718 142.045C132.718 142.145 132.718 142.195 132.718 142.244C132.718 142.544 132.618 142.793 132.419 142.993C132.219 143.192 131.97 143.292 131.671 143.292C131.421 143.292 131.172 143.192 131.022 143.042C130.823 142.893 130.673 142.643 130.623 142.394L129.825 139.651H125.137L124.339 142.344C124.239 142.643 124.09 142.893 123.94 143.042C123.741 143.192 123.541 143.242 123.242 143.242C122.943 143.242 122.743 143.142 122.544 142.943C122.344 142.743 122.244 142.494 122.244 142.244C122.244 142.095 122.244 142.045 122.244 141.945C122.244 141.895 122.244 141.845 122.294 141.746L126.334 127.83C126.484 127.382 126.633 127.082 126.783 126.883C126.983 126.683 127.182 126.633 127.481 126.633C127.781 126.633 128.03 126.733 128.18 126.883C128.329 127.032 128.479 127.431 128.628 127.88ZM127.431 131.571L125.686 137.506H129.127L127.431 131.571Z" fill="#727171"/>
<path d="M138.204 126.683H145.586C146.484 126.683 147.232 126.983 147.88 127.631C148.529 128.279 148.828 129.027 148.828 129.925V131.022C148.828 131.92 148.529 132.668 147.88 133.317C147.232 133.965 146.484 134.264 145.586 134.264H144.439L148.628 141.596C148.728 141.746 148.778 141.845 148.778 141.945C148.778 142.045 148.828 142.145 148.828 142.244C148.828 142.544 148.728 142.793 148.529 142.993C148.329 143.192 148.08 143.292 147.78 143.292C147.581 143.292 147.381 143.242 147.182 143.142C146.982 143.042 146.883 142.893 146.733 142.693L141.895 134.314H140.349V142.145C140.349 142.494 140.249 142.793 140.05 142.993C139.85 143.192 139.601 143.342 139.252 143.342C138.953 143.342 138.653 143.242 138.454 142.993C138.254 142.743 138.155 142.494 138.155 142.145V126.683H138.204ZM140.399 128.828V132.12H145.586C145.885 132.12 146.135 132.02 146.334 131.771C146.534 131.521 146.633 131.272 146.633 131.022V129.925C146.633 129.626 146.534 129.377 146.284 129.177C146.085 128.978 145.835 128.828 145.536 128.828H140.399V128.828Z" fill="#727171"/>
<path d="M106.035 126.683H113.416C114.314 126.683 115.062 126.983 115.711 127.631C116.359 128.279 116.658 129.027 116.658 129.925V133.766C116.658 134.663 116.359 135.411 115.711 136.06C115.062 136.708 114.314 137.008 113.416 137.008H108.229V142.095C108.229 142.444 108.13 142.743 107.93 142.943C107.731 143.142 107.481 143.292 107.132 143.292C106.783 143.292 106.534 143.192 106.334 142.943C106.135 142.693 106.035 142.444 106.035 142.095V126.683V126.683ZM108.229 128.828V134.813H113.416C113.716 134.813 113.965 134.713 114.165 134.464C114.364 134.264 114.464 134.015 114.464 133.716V129.875C114.464 129.576 114.364 129.327 114.165 129.127C113.965 128.928 113.716 128.778 113.416 128.778H108.229V128.828Z" stroke="#727171" stroke-width="0.22" stroke-miterlimit="5"/>
<path d="M128.628 127.88L132.668 141.796C132.668 141.895 132.718 141.945 132.718 142.045C132.718 142.145 132.718 142.195 132.718 142.244C132.718 142.544 132.618 142.793 132.419 142.993C132.219 143.192 131.97 143.292 131.671 143.292C131.421 143.292 131.172 143.192 131.022 143.042C130.823 142.893 130.673 142.643 130.623 142.394L129.825 139.651H125.137L124.339 142.344C124.239 142.643 124.09 142.893 123.94 143.042C123.741 143.192 123.541 143.242 123.242 143.242C122.943 143.242 122.743 143.142 122.544 142.943C122.344 142.743 122.244 142.494 122.244 142.244C122.244 142.095 122.244 142.045 122.244 141.945C122.244 141.895 122.244 141.845 122.294 141.746L126.334 127.83C126.484 127.382 126.633 127.082 126.783 126.883C126.983 126.683 127.182 126.633 127.481 126.633C127.781 126.633 128.03 126.733 128.18 126.883C128.329 127.032 128.479 127.431 128.628 127.88ZM127.431 131.571L125.686 137.506H129.127L127.431 131.571Z" stroke="#727171" stroke-width="0.22" stroke-miterlimit="5"/>
<path d="M138.204 126.683H145.586C146.484 126.683 147.232 126.983 147.88 127.631C148.529 128.279 148.828 129.027 148.828 129.925V131.022C148.828 131.92 148.529 132.668 147.88 133.317C147.232 133.965 146.484 134.264 145.586 134.264H144.439L148.628 141.596C148.728 141.746 148.778 141.845 148.778 141.945C148.778 142.045 148.828 142.145 148.828 142.244C148.828 142.544 148.728 142.793 148.529 142.993C148.329 143.192 148.08 143.292 147.78 143.292C147.581 143.292 147.381 143.242 147.182 143.142C146.982 143.042 146.883 142.893 146.733 142.693L141.895 134.314H140.349V142.145C140.349 142.494 140.249 142.793 140.05 142.993C139.85 143.192 139.601 143.342 139.252 143.342C138.953 143.342 138.653 143.242 138.454 142.993C138.254 142.743 138.155 142.494 138.155 142.145V126.683H138.204ZM140.399 128.828V132.12H145.586C145.885 132.12 146.135 132.02 146.334 131.771C146.534 131.521 146.633 131.272 146.633 131.022V129.925C146.633 129.626 146.534 129.377 146.284 129.177C146.085 128.978 145.835 128.828 145.536 128.828H140.399V128.828Z" stroke="#727171" stroke-width="0.22" stroke-miterlimit="5"/>
<path d="M156.808 127.88V132.668L163.392 127.032C163.541 126.883 163.641 126.833 163.791 126.783C163.94 126.733 164.04 126.683 164.19 126.683C164.489 126.683 164.738 126.783 164.938 126.983C165.137 127.182 165.237 127.431 165.237 127.681C165.237 127.88 165.187 128.03 165.137 128.18C165.037 128.329 164.938 128.479 164.788 128.628L157.357 134.963L164.788 141.347C164.938 141.496 165.037 141.646 165.137 141.796C165.237 141.945 165.287 142.095 165.287 142.294C165.287 142.594 165.187 142.793 164.988 142.993C164.788 143.192 164.539 143.292 164.239 143.292C164.09 143.292 163.94 143.292 163.84 143.192C163.741 143.092 163.591 143.042 163.441 142.943L156.858 137.307V142.095C156.858 142.444 156.758 142.743 156.559 142.943C156.359 143.142 156.11 143.292 155.761 143.292C155.411 143.292 155.162 143.192 154.963 142.943C154.763 142.693 154.663 142.444 154.663 142.095V127.88C154.663 127.531 154.763 127.232 154.963 126.983C155.162 126.783 155.411 126.633 155.761 126.633C156.06 126.633 156.309 126.733 156.509 126.983C156.708 127.232 156.808 127.531 156.808 127.88Z" fill="#727171"/>
<path d="M156.808 127.88V132.668L163.392 127.032C163.541 126.883 163.641 126.833 163.791 126.783C163.94 126.733 164.04 126.683 164.19 126.683C164.489 126.683 164.738 126.783 164.938 126.983C165.137 127.182 165.237 127.431 165.237 127.681C165.237 127.88 165.187 128.03 165.137 128.18C165.037 128.329 164.938 128.479 164.788 128.628L157.357 134.963L164.788 141.347C164.938 141.496 165.037 141.646 165.137 141.796C165.237 141.945 165.287 142.095 165.287 142.294C165.287 142.594 165.187 142.793 164.988 142.993C164.788 143.192 164.539 143.292 164.239 143.292C164.09 143.292 163.94 143.292 163.84 143.192C163.741 143.092 163.591 143.042 163.441 142.943L156.858 137.307V142.095C156.858 142.444 156.758 142.743 156.559 142.943C156.359 143.142 156.11 143.292 155.761 143.292C155.411 143.292 155.162 143.192 154.963 142.943C154.763 142.693 154.663 142.444 154.663 142.095V127.88C154.663 127.531 154.763 127.232 154.963 126.983C155.162 126.783 155.411 126.633 155.761 126.633C156.06 126.633 156.309 126.733 156.509 126.983C156.708 127.232 156.808 127.531 156.808 127.88Z" stroke="#727171" stroke-width="0.22" stroke-miterlimit="5"/>
<path fill-rule="evenodd" clip-rule="evenodd" d="M80.4988 126.135H89.0773C89.6259 126.135 90.0748 126.584 90.0748 127.132C90.0748 127.681 89.6259 128.13 89.0773 128.13H80.4988C79.9501 128.13 79.5013 127.681 79.5013 127.132C79.4514 126.584 79.9501 126.135 80.4988 126.135ZM80.4988 133.416H89.0773C89.6259 133.416 90.0748 133.865 90.0748 134.414C90.0748 134.963 89.6259 135.411 89.0773 135.411H80.4988C79.9501 135.411 79.5013 134.963 79.5013 134.414C79.4514 133.865 79.9501 133.416 80.4988 133.416ZM80.4988 140.648H89.0773C89.6259 140.648 90.0748 141.097 90.0748 141.646C90.0748 142.194 89.6259 142.643 89.0773 142.643H80.4988C79.9501 142.643 79.5013 142.194 79.5013 141.646C79.4514 141.097 79.9501 140.648 80.4988 140.648Z" fill="#727171"/>
<path d="M89.0772 142.793H80.4987C79.8503 142.793 79.3516 142.294 79.3516 141.646C79.3516 140.998 79.8503 140.499 80.4987 140.499H89.0772C89.7256 140.499 90.2244 140.998 90.2244 141.646C90.2244 142.294 89.6758 142.793 89.0772 142.793ZM80.4987 140.798C79.9999 140.798 79.6508 141.197 79.6508 141.646C79.6508 142.145 80.0498 142.494 80.4987 142.494H89.0772C89.576 142.494 89.9251 142.095 89.9251 141.646C89.9251 141.147 89.5261 140.798 89.0772 140.798H80.4987ZM89.0772 135.561H80.4987C79.8503 135.561 79.3516 135.062 79.3516 134.414C79.3516 133.766 79.8503 133.267 80.4987 133.267H89.0772C89.7256 133.267 90.2244 133.766 90.2244 134.414C90.2244 135.012 89.6758 135.561 89.0772 135.561ZM80.4987 133.516C79.9999 133.516 79.6508 133.915 79.6508 134.364C79.6508 134.863 80.0498 135.212 80.4987 135.212H89.0772C89.576 135.212 89.9251 134.813 89.9251 134.364C89.9251 133.865 89.5261 133.516 89.0772 133.516H80.4987ZM89.0772 128.279H80.4987C79.8503 128.279 79.3516 127.781 79.3516 127.132C79.3516 126.484 79.8503 125.985 80.4987 125.985H89.0772C89.7256 125.985 90.2244 126.484 90.2244 127.132C90.2244 127.781 89.6758 128.279 89.0772 128.279ZM80.4987 126.234C79.9999 126.234 79.6508 126.633 79.6508 127.082C79.6508 127.581 80.0498 127.93 80.4987 127.93H89.0772C89.576 127.93 89.9251 127.531 89.9251 127.082C89.9251 126.584 89.5261 126.234 89.0772 126.234H80.4987V126.234Z" fill="#727171"/>
<path fill-rule="evenodd" clip-rule="evenodd" d="M73.5162 55.4115L85.4863 16.5586L47.7307 74.6135H70.6235L58.9527 113.017L96.808 55.4115H73.5162Z" fill="#F7D033"/>
<path fill-rule="evenodd" clip-rule="evenodd" d="M99.202 58.404L91.6209 70.7731C113.267 73.616 128.978 63.0424 131.471 48.5287C135.312 26.9327 123.591 14.8628 89.0274 16.7581L86.2344 28.8778C114.264 28.1297 123.84 32.9177 118.903 49.2269C115.362 57.3566 107.98 59.601 99.202 58.404Z" fill="#00954D"/>
</svg>
