<svg width="140" height="140" viewBox="0 0 140 140" fill="none" xmlns="http://www.w3.org/2000/svg">
<path d="M102.652 88.4707C103.058 88.4707 103.465 88.561 103.871 88.7868C104.277 89.0126 104.548 89.2836 104.774 89.6901C105 90.0965 105.09 90.503 105.09 90.9094C105.09 91.3159 105 91.7223 104.774 92.1288C104.548 92.5352 104.277 92.8062 103.871 93.032C103.465 93.2578 103.058 93.3481 102.652 93.3481C102.245 93.3481 101.839 93.2578 101.432 93.032C101.026 92.8062 100.755 92.5352 100.529 92.1288C100.303 91.7223 100.213 91.3159 100.213 90.9094C100.213 90.503 100.303 90.0514 100.529 89.6901C100.755 89.2836 101.071 89.0126 101.432 88.7868C101.839 88.6062 102.245 88.4707 102.652 88.4707ZM102.652 88.9675C102.335 88.9675 101.974 89.0578 101.703 89.2385C101.387 89.4191 101.161 89.6449 100.981 89.961C100.8 90.2772 100.71 90.5933 100.71 90.9546C100.71 91.3159 100.8 91.632 100.981 91.9481C101.161 92.2643 101.387 92.4901 101.703 92.6707C102.019 92.8513 102.335 92.9417 102.697 92.9417C103.058 92.9417 103.374 92.8513 103.69 92.6707C104.006 92.4901 104.232 92.2643 104.413 91.9481C104.594 91.632 104.684 91.3159 104.684 90.9546C104.684 90.5933 104.594 90.2772 104.413 89.961C104.232 89.6449 104.006 89.4191 103.69 89.2385C103.329 89.0578 103.013 88.9675 102.652 88.9675ZM101.568 92.2191V89.6449H102.11C102.606 89.6449 102.877 89.6449 102.923 89.6449C103.103 89.6449 103.239 89.6901 103.329 89.7352C103.419 89.7804 103.51 89.8707 103.555 90.0062C103.6 90.0965 103.645 90.232 103.645 90.3675C103.645 90.5481 103.6 90.7288 103.465 90.8643C103.329 90.9997 103.148 91.0901 102.968 91.0901C103.058 91.1352 103.103 91.1352 103.148 91.1804C103.194 91.2255 103.239 91.2707 103.329 91.361C103.329 91.4062 103.419 91.4965 103.51 91.6772L103.826 92.2191H103.194L102.968 91.8126C102.832 91.5417 102.697 91.361 102.606 91.2707C102.516 91.1804 102.381 91.1804 102.245 91.1804H102.065V92.2643H101.568V92.2191ZM102.065 90.7739H102.29C102.606 90.7739 102.787 90.7739 102.877 90.7288C102.968 90.6836 103.013 90.6836 103.058 90.5933C103.103 90.5481 103.103 90.4578 103.103 90.4126C103.103 90.3223 103.103 90.2772 103.058 90.232C103.013 90.1868 102.968 90.1417 102.877 90.0965C102.787 90.0514 102.606 90.0513 102.335 90.0513H102.065V90.7739Z" fill="black"/>
<path d="M101.568 48.5936C104.955 48.5936 107.71 45.0258 107.71 40.6452C107.71 36.2645 104.955 32.6968 101.568 32.6968C99.8065 32.6968 98.271 33.6452 97.1419 35.1806L100.303 42.4968L101.568 48.5936Z" fill="#F2692A"/>
<path d="M41.7742 35.3159C41.7742 35.3159 36.7161 29.445 32.3806 35.7675C32.3806 35.7675 28.4516 45.3417 36.1742 48.6837C36.1742 48.7288 39.5613 36.7159 41.7742 35.3159Z" fill="#F2692A"/>
<path d="M82.4193 6.54834C82.4193 6.54834 79.0774 10.2064 70.9935 10.2064C62.9097 10.2064 53.1097 13.3677 46.6064 24.4774L44.0323 31.8387C44.0323 31.8387 36.671 40.1935 35.6774 52.3871C34.6839 64.5806 37.6645 68.6903 37.6645 68.6903C37.6645 68.6903 35.7677 75.2838 34.2323 76.0064C34.2323 76.0064 37.8903 75.7806 38.5677 75.1935C39.2452 74.6064 38.7484 74.6967 38.7484 74.6967C38.7484 74.6967 39.1548 83.6387 45.1613 88.7419C51.1677 93.8451 45.2516 89.1032 45.2516 89.1032C45.2516 89.1032 44.8903 85.7161 45.2516 84.4967C45.2516 84.4967 57.2645 96.2838 68.871 95.5161C80.4774 94.7483 95.3355 89.1032 101.839 67.7871C101.839 67.7871 104.413 50.8516 100.348 42.4064C96.329 33.9612 94.3871 31.4774 94.3871 31.4774C94.3871 31.4774 88.0645 16.529 83.2323 15.3548C83.2323 15.3548 85.4 13.5935 86.3935 12.4193C86.3935 12.4193 81.471 12.8258 80.3871 12.7354C80.3871 12.7354 82.5097 8.94189 82.4193 6.54834Z" fill="#B5CC39"/>
<path d="M85.9419 52.3871C89.2839 51.1226 91.8129 48.4129 92.4452 44.9355C93.4387 39.2 89.2839 32.471 82.5097 32.1548C77.1806 31.071 73.2968 35.0452 69.9097 35.4516C66.5226 35.8581 61.5548 27.7742 55.4129 29.0387C47.9161 30.5742 42.8129 37.1677 43.9871 43.7613C44.8452 48.6387 48.9548 52.1613 54.0581 53.0194L85.9419 52.3871Z" fill="#F2692A"/>
<path d="M46.7871 92.0389L44.529 89.9163C39.1097 84.8582 37.9355 79.2582 37.7097 76.4582C35.9032 77.1808 34.2774 77.0905 34.1871 77.0905L32.0194 77.0001L33.4194 75.3292C35.8129 72.484 37.0323 66.7937 37.0323 66.7485L39.1097 67.2001C39.0645 67.426 38.2065 71.4001 36.4452 74.6518C36.9871 74.4711 37.6194 74.2453 38.1613 73.8389L40.0129 72.5743L39.7871 74.8324C39.7419 75.1034 39.3355 80.5227 43.8065 86.0776C43.7161 84.3614 43.7161 82.3292 44.2129 81.1098L46.2 81.9227C45.6581 83.3227 45.929 87.026 46.2452 89.0131L46.7871 92.0389Z" fill="black"/>
<path d="M101.568 49.6773V47.5547C104.368 47.5547 106.626 44.4838 106.626 40.6451C106.626 36.8515 104.368 33.7354 101.568 33.7354C100.213 33.7354 98.9484 34.458 98 35.7676L96.2839 34.5031C97.6387 32.6515 99.5806 31.6128 101.568 31.6128C105.542 31.6128 108.748 35.6773 108.748 40.6451C108.794 45.6128 105.542 49.6773 101.568 49.6773Z" fill="black"/>
<path d="M37.2129 49.6773C33.2387 49.6773 30.0323 45.6128 30.0323 40.6451C30.0323 35.6773 33.2387 31.6128 37.2129 31.6128C39.2903 31.6128 41.2774 32.7418 42.6323 34.6838L40.871 35.9031C39.9226 34.5031 38.5677 33.7354 37.2129 33.7354C34.4129 33.7354 32.1548 36.8063 32.1548 40.6451C32.1548 44.4386 34.4129 47.5547 37.2129 47.5547V49.6773Z" fill="black"/>
<path d="M85.2194 52.613C86.3484 51.1227 87.0258 49.2711 87.0258 47.2388C87.0258 42.3162 83.0065 38.2969 78.0839 38.2969C73.929 38.2969 72.8 43.3098 69.4581 43.3098C64.9419 43.3098 64.9871 38.2969 60.8323 38.2969C55.9097 38.2969 51.8903 42.3162 51.8903 47.2388C51.8903 49.2711 52.5677 51.1678 53.6968 52.6582L54.4194 53.1098H39.9677L49.8129 56.5872L49.7226 56.7678C46.1097 60.5614 43.9419 65.4388 43.9419 70.7227L45.071 73.7033C47.0129 83.8646 57.4452 91.4969 69.5032 91.4969C81.1097 91.4969 91.1355 84.5872 93.6645 74.9678L93.7097 74.2453L94.8839 73.1614C94.8839 73.1614 96.2839 71.7162 96.2839 70.7227C96.2839 69.7291 94.9742 69.0066 94.9742 69.0066C94.5677 64.4001 92.5355 60.1549 89.329 56.7678L89.1936 56.6324L99.0839 53.0646H84.8581L85.2194 52.613Z" fill="#F2692A"/>
<path d="M69.4581 92.355C57.0387 92.355 46.2 84.4066 44.2129 73.884L45.8387 73.5679C47.6903 83.3227 57.8516 90.684 69.4581 90.684C80.5226 90.684 90.3226 84.0453 92.8065 74.8775L92.8516 74.2001L94.5226 74.3356L94.4323 75.2388C91.7226 85.3098 81.471 92.355 69.4581 92.355Z" fill="black"/>
<path d="M54.9613 55.368C52.3419 53.4712 50.8065 50.4454 50.8065 47.2389C50.8065 41.7293 55.2774 37.2583 60.7871 37.2583C63.3161 37.2583 64.5807 38.7486 65.7097 40.0583C66.7484 41.2777 67.6065 42.2712 69.4129 42.2712C70.5419 42.2712 71.4452 41.368 72.4387 40.2841C73.7484 38.9293 75.3742 37.2583 78.0387 37.2583C83.5484 37.2583 88.0194 41.7293 88.0194 47.2389C88.0194 50.4002 86.5742 53.2906 84.0903 55.1873L82.7807 53.4712C84.7677 51.9809 85.8968 49.6777 85.8968 47.1938C85.8968 42.8583 82.3742 39.3357 78.0387 39.3357C76.2774 39.3357 75.1484 40.5099 73.9742 41.7293C72.8 42.9486 71.4452 44.3486 69.4129 44.3486C66.6129 44.3486 65.2129 42.7228 64.0839 41.368C63.0903 40.2389 62.3226 39.2906 60.7871 39.2906C56.4516 39.2906 52.929 42.8131 52.929 47.1486C52.929 49.6777 54.1484 52.0712 56.1807 53.5164L54.9613 55.368Z" fill="black"/>
<path d="M73.6129 52.297C75.5548 53.7873 78.7161 52.839 80.2968 51.4841C81.6065 50.3551 82.8258 48.5035 82.2839 46.3357C83.9548 46.968 84.1355 50.1293 82.7806 51.3035C83.729 50.7164 84.4516 49.3615 84.3161 47.7357C84.1355 45.6583 82.5097 44.3486 80.3871 44.5293C78.129 44.7099 76.8194 46.6067 75.4645 48.0067C74.8323 48.6841 74.1097 49.4519 73.4323 50.1744C72.8 50.8519 71.9871 51.8454 71.1742 52.1615C70.3613 52.4325 68.8258 52.4777 67.9226 52.2067C67.1097 51.9357 66.3419 50.9422 65.6645 50.2196C64.9419 49.497 64.3097 48.7744 63.6323 48.0067C62.2774 46.5615 60.9677 44.6648 58.6645 44.5293C56.5419 44.3938 54.9161 45.7938 54.7806 47.8712C54.6452 49.6325 55.4129 50.7615 56.3161 51.3035C54.9613 50.1744 55.2323 46.9228 56.8129 46.3809C56.7226 46.8325 56.6323 47.2841 56.6774 47.8712C56.9935 51.4841 62.0516 54.4648 65.5742 52.3422L65.9806 52.6132C65.1226 53.2454 63.8581 53.5164 62.8194 53.968C64.3097 53.968 65.8903 53.697 67.0645 53.2454H71.9871C73.1613 53.697 74.7871 53.968 76.2323 53.9228C75.1484 53.5164 73.8839 53.2454 73.071 52.568L73.6129 52.297Z" fill="black"/>
<path d="M80.0258 81.1549H79.8452C61.3742 77.3614 49.9484 75.1936 45.929 74.4259C43.9419 74.1098 43.3548 73.7033 43.2193 73.2066C42.9032 72.6195 42.6323 71.5356 43.129 70.4066C43.8064 68.8259 45.7032 67.6517 48.729 66.9743L49.0903 68.6001C45.9742 69.3227 44.9355 70.3162 44.6645 71.0388C44.3935 71.6711 44.6193 72.2582 44.7097 72.4388C44.9806 72.5291 45.6581 72.7098 46.2452 72.8001C50.3097 73.5678 61.6903 75.7356 80.1161 79.5291C87.9742 79.484 94.1613 72.7549 94.2065 72.6646C94.7935 72.0775 95.3806 71.1743 95.3806 70.813C95.3806 70.4969 94.7935 70.0001 94.4774 69.8195L94.1161 69.5937L94.071 69.142C93.7097 64.8517 91.8129 60.7872 88.6516 57.4001L87.6581 56.3162L94.2516 53.9678H84.7677V52.2969H103.735L90.5484 57.0388C93.4839 60.4259 95.2452 64.3549 95.6968 68.6001C96.1935 68.9614 97.0516 69.7743 97.0516 70.813C97.0516 72.0775 95.6968 73.5227 95.4258 73.7937C95.1548 74.0646 88.6516 81.1549 80.0258 81.1549Z" fill="black"/>
<path d="M44.7097 70.7224H43.0387C43.0387 65.7547 44.9355 60.9224 48.3226 56.9482L35.0452 52.2515H54.329V53.9224H44.7548L50.9419 56.1353L50.2194 57.3547C46.6968 61.1031 44.7097 65.845 44.7097 70.7224Z" fill="black"/>
<path d="M53.8774 53.7869C48.2323 52.8385 44.0323 48.9547 43.129 43.8514C41.9097 36.8514 47.329 29.8063 55.2323 28.1805C59.2065 27.3676 62.6387 30.0321 65.3936 32.1547C67.1097 33.4643 68.7355 34.7288 69.8194 34.5934C70.9032 34.4579 72.1678 33.8256 73.5226 33.1934C75.9613 32.0192 78.9871 30.5288 82.6452 31.2514C85.8065 31.4321 88.6968 32.9224 90.729 35.4966C92.8968 38.2063 93.8452 41.774 93.3032 45.0256C92.671 48.6837 90.0516 51.7095 86.3032 53.1095L85.7161 51.574C88.9226 50.3547 91.1355 47.8256 91.6774 44.7547C92.1742 41.9547 91.3161 38.8837 89.4645 36.5353C87.7032 34.3224 85.2194 33.0579 82.5097 32.9224H82.3742C79.2581 32.2901 76.5936 33.5546 74.2452 34.6837C72.8 35.4063 71.4 36.0385 70.0452 36.2192C68.2839 36.445 66.4774 35.045 64.4 33.4192C61.7807 31.3869 58.8452 29.0837 55.5936 29.7611C48.5484 31.2063 43.7161 37.3482 44.8 43.4901C45.5677 47.8708 49.271 51.2579 54.1936 52.0708L53.8774 53.7869Z" fill="black"/>
<path d="M69.2323 96.5099C59.7936 96.5099 50.9871 92.3099 44.3936 84.6777L46.0194 83.2777C52.2065 90.4583 60.471 94.3873 69.2774 94.3873C87.2968 94.3873 101.929 77.6325 101.929 57.0841C101.929 54.1035 101.613 51.1228 101.026 48.2777C100.574 46.1551 99.9419 44.0777 99.1742 42.0454C98.4065 40.0131 97.4581 38.0712 96.3742 36.2196C95.5613 34.8196 94.6129 33.4648 93.6194 32.1551L93.4839 31.9744L93.4387 31.7486C91.6774 25.7422 88.2903 20.4131 83.729 16.7551L79.7097 15.5357L82.329 14.3615C83.0516 14.0454 83.6387 13.7293 84.1355 13.4131C81.7419 13.7293 79.529 13.5486 79.3484 13.5486L76.9548 13.368L78.7161 11.7422C79.8452 10.7035 80.5677 9.66475 81.1097 8.76153C79.3936 9.98088 76.9548 11.2002 74.0194 11.3809C73.0258 11.426 72.0774 11.4712 71.0387 11.4712C70.6774 11.4712 70.271 11.4712 69.9097 11.4712L69.2323 11.5615C58.1226 11.5615 48.4129 19.6906 45.1161 31.8389L45.071 32.0648L44.9355 32.2454C39.5161 39.0196 36.5806 47.8712 36.5806 57.0841C36.5806 61.2841 37.2129 65.439 38.3871 69.368L36.3548 70.0002C35.0903 65.8454 34.4581 61.5099 34.4581 57.0841C34.4581 47.4648 37.529 38.2519 43.129 31.026C46.7419 18.1099 57.1742 9.43895 69.1871 9.39379L69.8194 9.30346C70.2258 9.30346 70.6323 9.30346 71.0387 9.2583C72.0323 9.2583 73.0258 9.21314 73.929 9.16798C79.0774 8.85185 82.4645 4.69701 82.4645 4.65185L84.3613 2.2583V5.28411C84.3613 5.41959 84.3161 8.26475 81.8774 11.426C83.5484 11.3809 85.8065 11.1551 87.2065 10.3422L89.7355 8.89701L88.6968 11.6067C88.6064 11.8325 87.929 13.5035 85.2194 15.1744C89.9613 19.0583 93.529 24.6131 95.2903 30.9357C96.2839 32.2454 97.2323 33.6002 98.0903 35.0454C99.2194 36.9873 100.258 39.0648 101.071 41.1873C101.884 43.3099 102.561 45.5228 103.013 47.7357C103.645 50.7615 103.961 53.8777 103.961 56.9938C104.006 78.8067 88.3806 96.5099 69.2323 96.5099Z" fill="black"/>
<path d="M89.0581 38.7031C88.471 37.5289 87.7032 36.8063 87.7032 36.8063C86.0774 34.9095 82.6903 34.6837 80.3871 35.4063C80.2968 35.4515 80.2516 35.4515 80.1613 35.4966C79.0323 35.8128 76.5032 36.7611 73.6581 39.1547C73.6581 39.1547 73.7936 39.1547 73.9742 39.1095C72.9807 40.0579 72.1678 41.2773 71.9419 42.6321C73.5226 41.5482 74.7419 39.4257 76.8194 38.6128C77.3613 38.5224 77.9032 38.387 78.4 38.2966C78.4452 38.2966 78.5355 38.2966 78.5807 38.2966C83.2323 38.2966 87.071 41.8644 87.4774 46.4257C88.4258 45.7482 89.0581 44.6644 89.3742 43.4902C89.7355 41.9547 89.7807 40.1482 89.0581 38.7031ZM66.4774 40.4192C66.4774 40.3741 66.4774 40.3741 66.4774 40.4192C66.4323 40.3741 66.4323 40.374 66.4323 40.3289C66.3419 40.1934 66.2516 40.0128 66.1613 39.8773C66.1161 39.8321 66.1161 39.787 66.071 39.7418C65.9807 39.6063 65.8452 39.4257 65.7549 39.2902C65.7549 39.2902 65.7548 39.2902 65.7097 39.245C65.529 39.0192 65.3936 38.8386 65.2129 38.6579C65.2129 38.6579 65.2129 38.6579 65.1678 38.6128C64.9871 38.4321 64.8065 38.2063 64.6258 38.0257C64.6258 38.0257 64.6258 38.0257 64.5807 38.0257C64.4 37.845 64.1742 37.6644 63.9936 37.4837C63.7677 37.3031 63.5871 37.1224 63.3613 36.987C61.5548 35.6321 59.4323 34.5482 57.3097 33.8708C54.6452 33.0128 50.7161 33.2386 48.8194 35.4966C48.8194 35.4966 47.9613 36.3547 47.2387 37.7095C46.3807 39.3353 46.4258 41.4579 46.8774 43.2192C47.4645 45.2966 48.8645 47.1934 51.1226 47.4644C51.3936 47.5095 51.6645 47.5095 51.9807 47.5095C51.9807 47.4192 51.9807 47.3289 51.9807 47.2386C51.9807 42.316 56 38.2966 60.9226 38.2966C63.271 38.2966 64.2645 39.8773 65.529 41.2321C66.0258 41.774 66.5226 42.316 67.2 42.6773C67.2 42.587 67.2 42.4515 67.2 42.3611C68.4645 42.7676 69.4581 42.2257 69.4581 42.2257C67.5613 42.316 66.6129 40.6902 66.4774 40.4192Z" fill="black"/>
<path d="M13.4129 132.594L12.4645 133.497C12.2839 133.136 12.0129 132.91 11.6968 132.729C11.3807 132.549 11.1097 132.458 10.7484 132.458C10.2065 132.458 9.75485 132.639 9.39356 133.045C8.9871 133.452 8.80646 133.903 8.80646 134.445C8.80646 135.032 8.9871 135.529 9.39356 135.936C9.80001 136.342 10.2516 136.523 10.7936 136.523C11.1097 136.523 11.3807 136.432 11.6516 136.297C11.9226 136.161 12.1484 135.845 12.329 135.439H10.7484V134.174H13.8645V135.032C13.8645 135.484 13.729 135.981 13.4129 136.478C13.0968 136.974 12.6903 137.381 12.1936 137.607C11.6968 137.832 11.2 137.968 10.6581 137.968C9.70968 137.968 8.94194 137.652 8.30968 136.974C7.67743 136.297 7.3613 135.484 7.3613 134.491C7.3613 133.542 7.67743 132.729 8.35485 132.097C9.03227 131.42 9.80001 131.103 10.7484 131.103C11.8774 131.058 12.7807 131.555 13.4129 132.594Z" fill="black"/>
<path d="M20.1419 131.148H22.3548C23.0323 131.148 23.5742 131.329 23.9355 131.69C24.3419 132.052 24.5226 132.503 24.5226 133.136C24.5226 133.497 24.4323 133.858 24.2516 134.219C24.071 134.581 23.7548 134.897 23.2581 135.077L25.1548 137.877H23.4839L21.7226 135.258H21.5419V137.877H20.0968V131.148H20.1419ZM21.5871 132.323V134.084H21.9032C22.671 134.084 23.0323 133.768 23.0323 133.136C23.0323 132.865 22.9419 132.684 22.7161 132.548C22.5355 132.413 22.2645 132.323 21.9032 132.323H21.5871Z" fill="black"/>
<path d="M31.5226 131.148H35.3161V132.503H32.9677V133.858H35.3161V135.168H32.9677V136.568H35.3161V137.923H31.5226V131.148Z" fill="black"/>
<path d="M41.8194 131.148H45.6129V132.503H43.2645V133.858H45.6129V135.168H43.2645V136.568H45.6129V137.923H41.8194V131.148Z" fill="black"/>
<path d="M56.5419 131.148H57.9419V137.877H56.5419L53.471 133.542V137.877H52.0258V131.148H53.471L56.5419 135.484V131.148Z" fill="black"/>
<path d="M72.6194 131.148H76.4129V132.503H74.0645V133.858H76.4129V135.168H74.0645V136.568H76.4129V137.923H72.6194V131.148Z" fill="black"/>
<path d="M87.3419 131.148H88.7419V137.877H87.3419L84.271 133.542V137.877H82.8258V131.148H84.271L87.3419 135.484V131.148Z" fill="black"/>
<path d="M95.3355 131.148H99.129V132.503H96.7806V133.858H99.129V135.168H96.7806V136.568H99.129V137.923H95.3355V131.148Z" fill="black"/>
<path d="M105.587 131.148H107.8C108.477 131.148 109.019 131.329 109.381 131.69C109.787 132.052 109.968 132.503 109.968 133.136C109.968 133.497 109.877 133.858 109.697 134.219C109.516 134.581 109.2 134.897 108.703 135.077L110.6 137.877H108.929L107.168 135.258H107.032V137.877H105.587V131.148ZM107.077 132.323V134.084H107.394C108.161 134.084 108.523 133.768 108.523 133.136C108.523 132.865 108.432 132.684 108.206 132.548C108.026 132.413 107.755 132.323 107.394 132.323H107.077Z" fill="black"/>
<path d="M122.703 132.594L121.755 133.497C121.574 133.136 121.303 132.91 120.987 132.729C120.671 132.549 120.4 132.458 120.039 132.458C119.497 132.458 119.045 132.639 118.684 133.045C118.277 133.452 118.097 133.903 118.097 134.445C118.097 135.032 118.277 135.529 118.684 135.936C119.09 136.342 119.542 136.523 120.084 136.523C120.4 136.523 120.671 136.432 120.942 136.297C121.213 136.161 121.439 135.845 121.619 135.439H120.039V134.174H123.155V135.032C123.155 135.484 123.019 135.981 122.703 136.478C122.387 136.974 121.981 137.381 121.484 137.607C120.987 137.832 120.49 137.968 119.948 137.968C119 137.968 118.232 137.652 117.6 136.974C116.968 136.297 116.652 135.484 116.652 134.491C116.652 133.542 116.968 132.729 117.645 132.097C118.323 131.42 119.09 131.103 120.039 131.103C121.168 131.058 122.071 131.555 122.703 132.594Z" fill="black"/>
<path d="M128.935 131.148H130.561L131.826 133.226L133.09 131.148H134.716L132.594 134.716V137.877H131.148V134.716L128.935 131.148Z" fill="black"/>
<path d="M29.5806 114.348V110.329H16.3032V114.348H29.5806ZM40.0581 113.852L34.5935 103.058H13.4581C8.76129 103.058 4.96774 106.852 4.96774 111.548V112.632C5.0129 117.6 9.03226 121.574 13.9548 121.574H29.8065L29.7161 116.923L23.3935 116.968H14.8129C12.871 116.968 11.3355 115.387 11.3355 113.49V111.142C11.3355 109.2 12.9161 107.665 14.8129 107.665H29.671L37.1677 121.619H42.9032L52.8839 103.058H45.5226L40.0581 113.852ZM120.581 114.348H133.858V110.329H120.581V114.348ZM117.465 103.058C112.768 103.058 108.974 106.852 108.974 111.503V112.632C108.974 117.6 112.994 121.619 117.961 121.619H133.813V116.968L127.355 117.013H118.865C116.877 117.013 115.297 115.432 115.297 113.445V111.277C115.297 109.29 116.877 107.71 118.865 107.71H133.813V103.103H117.465V103.058ZM102.426 103.058H89.2839C85.671 103.058 82.7355 105.994 82.7355 109.606V121.619H89.871V110.6C89.871 108.884 90.6387 107.529 92.3548 107.529H98.9032C99.6258 107.529 100.213 108.116 100.213 108.839V110.013C100.213 110.736 99.6258 111.277 98.9484 111.277H92.8064V115.568L102.426 115.613C103.781 115.613 104.955 115.116 105.948 114.168C106.942 113.219 107.394 112.09 107.394 110.736V107.936C107.394 106.581 106.897 105.452 105.948 104.503C104.955 103.51 103.781 103.058 102.426 103.058ZM70.9935 103.058H63.9484C58.7548 103.148 54.6 107.348 54.6 112.587V121.665H60.8774V113.671C60.8774 110.465 62.7742 108.477 65.9355 108.297H68.7806C72.0774 108.297 74.1548 110.374 74.1548 113.671V121.665H80.4323V112.587C80.5226 107.303 76.2323 103.058 70.9935 103.058ZM62.3226 115.703H72.8452V111.684H62.3226V115.703Z" fill="black"/>
</svg>
