<svg width="68" height="68" viewBox="0 0 68 68" fill="none" xmlns="http://www.w3.org/2000/svg">
<g filter="url(#filter0_d_176_669)">
<g clip-path="url(#clip0_176_669)">
<g filter="url(#filter1_d_176_669)">
<rect x="10" y="5" width="48" height="48" rx="12" fill="white"/>
</g>
<path fill-rule="evenodd" clip-rule="evenodd" d="M29 29C29 31.7614 31.2386 34 34 34C36.7614 34 39 31.7614 39 29C38.9968 26.2399 36.7601 24.0032 34 24C31.2386 24 29 26.2386 29 29Z" fill="#44433F"/>
<path fill-rule="evenodd" clip-rule="evenodd" d="M47.9829 27.8654H45.7989C45.2772 22.2527 40.832 17.8075 35.2193 17.2858V15.1018C35.2193 14.5144 34.7431 14.0381 34.1557 14.0381C33.5682 14.0381 33.092 14.5144 33.092 15.1018V17.2858C27.4793 17.8075 23.0341 22.2527 22.5124 27.8654H19.6193C19.0319 27.8654 18.5557 28.3416 18.5557 28.9291C18.5557 29.5165 19.0319 29.9927 19.6193 29.9927H22.5124C23.0315 35.6106 27.4813 40.0603 33.0991 40.5794C33.0991 40.5794 33.0991 40.5794 33.0991 40.6361V43.4725C33.0991 44.0599 33.5753 44.5361 34.1628 44.5361C34.7502 44.5361 35.2264 44.0599 35.2264 43.4725V40.6361C35.2264 40.6361 35.2264 40.6361 35.2264 40.5794C40.8387 40.0539 45.281 35.6057 45.7989 29.9927H47.9829C48.5704 29.9927 49.0466 29.5165 49.0466 28.9291C49.0466 28.3416 48.5704 27.8654 47.9829 27.8654ZM34.1563 38.5018C28.8694 38.5018 24.5836 34.216 24.5836 28.9291C24.5836 23.6422 28.8694 19.3564 34.1563 19.3564C39.4432 19.3564 43.729 23.6422 43.729 28.9291C43.729 34.216 39.4432 38.5018 34.1563 38.5018Z" fill="#44433F"/>
</g>
</g>
<defs>
<filter id="filter0_d_176_669" x="0.4" y="0.2" width="67.2" height="67.2" filterUnits="userSpaceOnUse" color-interpolation-filters="sRGB">
<feFlood flood-opacity="0" result="BackgroundImageFix"/>
<feColorMatrix in="SourceAlpha" type="matrix" values="0 0 0 0 0 0 0 0 0 0 0 0 0 0 0 0 0 0 127 0" result="hardAlpha"/>
<feOffset dy="4.8"/>
<feGaussianBlur stdDeviation="4.8"/>
<feComposite in2="hardAlpha" operator="out"/>
<feColorMatrix type="matrix" values="0 0 0 0 0 0 0 0 0 0 0 0 0 0 0 0 0 0 0.3 0"/>
<feBlend mode="normal" in2="BackgroundImageFix" result="effect1_dropShadow_176_669"/>
<feBlend mode="normal" in="SourceGraphic" in2="effect1_dropShadow_176_669" result="shape"/>
</filter>
<filter id="filter1_d_176_669" x="-47.6" y="-50.2" width="163.2" height="163.2" filterUnits="userSpaceOnUse" color-interpolation-filters="sRGB">
<feFlood flood-opacity="0" result="BackgroundImageFix"/>
<feColorMatrix in="SourceAlpha" type="matrix" values="0 0 0 0 0 0 0 0 0 0 0 0 0 0 0 0 0 0 127 0" result="hardAlpha"/>
<feOffset dy="2.4"/>
<feGaussianBlur stdDeviation="28.8"/>
<feColorMatrix type="matrix" values="0 0 0 0 0 0 0 0 0 0 0 0 0 0 0 0 0 0 0.08 0"/>
<feBlend mode="normal" in2="BackgroundImageFix" result="effect1_dropShadow_176_669"/>
<feBlend mode="normal" in="SourceGraphic" in2="effect1_dropShadow_176_669" result="shape"/>
</filter>
<clipPath id="clip0_176_669">
<rect x="10" y="5" width="48" height="48" rx="24" fill="white"/>
</clipPath>
</defs>
</svg>
