<svg width="30" height="51" viewBox="0 0 30 51" fill="none" xmlns="http://www.w3.org/2000/svg">
<g filter="url(#filter0_f_128_649)">
<ellipse cx="15.0056" cy="45.5128" rx="5.60233" ry="2.81726" fill="black" fill-opacity="0.12"/>
</g>
<mask id="path-2-outside-1_128_649" maskUnits="userSpaceOnUse" x="0" y="0" width="30" height="45" fill="black">
<rect fill="white" width="30" height="45"/>
<path fill-rule="evenodd" clip-rule="evenodd" d="M15.006 29.0116C15.0059 29.0116 15.0059 29.0116 15.0058 29.0116H15.0057V43.5777C14.3869 43.5777 13.8853 43.076 13.8853 42.4572C13.8853 34.6459 9.51532 29.86 6.24349 26.2767C5.30053 25.244 4.44877 24.3111 3.81914 23.4346C2.04939 21.0894 1 18.1702 1 15.0058C1 7.27062 7.27062 1 15.0058 1C22.741 1 29.0116 7.27062 29.0116 15.0058C29.0116 18.1692 27.9629 21.0875 26.1942 23.4323C25.5644 24.3095 24.712 25.2431 23.7682 26.2767C20.4964 29.86 16.1265 34.6459 16.1265 42.4572C16.1265 43.076 15.6248 43.5777 15.006 43.5777V29.0116Z"/>
</mask>
<path fill-rule="evenodd" clip-rule="evenodd" d="M15.006 29.0116C15.0059 29.0116 15.0059 29.0116 15.0058 29.0116H15.0057V43.5777C14.3869 43.5777 13.8853 43.076 13.8853 42.4572C13.8853 34.6459 9.51532 29.86 6.24349 26.2767C5.30053 25.244 4.44877 24.3111 3.81914 23.4346C2.04939 21.0894 1 18.1702 1 15.0058C1 7.27062 7.27062 1 15.0058 1C22.741 1 29.0116 7.27062 29.0116 15.0058C29.0116 18.1692 27.9629 21.0875 26.1942 23.4323C25.5644 24.3095 24.712 25.2431 23.7682 26.2767C20.4964 29.86 16.1265 34.6459 16.1265 42.4572C16.1265 43.076 15.6248 43.5777 15.006 43.5777V29.0116Z" fill="url(#paint0_linear_128_649)"/>
<path d="M15.006 29.0116H15.9397C15.9397 28.496 15.5217 28.0779 15.006 28.0779V29.0116ZM15.0057 29.0116V28.0779C14.49 28.0779 14.072 28.496 14.072 29.0116H15.0057ZM15.0057 43.5777V44.5114C15.5214 44.5114 15.9394 44.0934 15.9394 43.5777H15.0057ZM6.24349 26.2767L5.55397 26.9063L6.24349 26.2767ZM3.81914 23.4346L4.5775 22.8898C4.57322 22.8839 4.56887 22.878 4.56445 22.8721L3.81914 23.4346ZM26.1942 23.4323L25.4488 22.87C25.4444 22.8759 25.44 22.8818 25.4357 22.8877L26.1942 23.4323ZM23.7682 26.2767L23.0787 25.6471L23.7682 26.2767ZM15.006 43.5777H14.0723C14.0723 44.0934 14.4903 44.5114 15.006 44.5114V43.5777ZM15.0058 29.9454C15.0058 29.9454 15.0058 29.9454 15.0058 29.9454C15.0058 29.9454 15.0058 29.9454 15.0058 29.9454H15.0058C15.0058 29.9454 15.0058 29.9454 15.0058 29.9454C15.0058 29.9454 15.0058 29.9454 15.0058 29.9454H15.0058C15.0058 29.9454 15.0058 29.9454 15.0058 29.9454C15.0058 29.9454 15.0058 29.9454 15.0058 29.9454C15.0058 29.9454 15.0058 29.9454 15.0058 29.9454C15.0058 29.9454 15.0058 29.9454 15.0058 29.9454H15.0058C15.0058 29.9454 15.0058 29.9454 15.0058 29.9454C15.0058 29.9454 15.0058 29.9454 15.0058 29.9454H15.0058C15.0058 29.9454 15.0058 29.9454 15.0058 29.9454C15.0058 29.9454 15.0058 29.9454 15.0058 29.9454H15.0058C15.0058 29.9454 15.0058 29.9454 15.0058 29.9454H15.0058C15.0058 29.9454 15.0058 29.9454 15.0058 29.9454C15.0058 29.9454 15.0058 29.9454 15.0058 29.9454H15.0058C15.0058 29.9454 15.0058 29.9454 15.0058 29.9454C15.0058 29.9454 15.0058 29.9454 15.0058 29.9454H15.0058C15.0058 29.9454 15.0058 29.9454 15.0058 29.9454C15.0058 29.9454 15.0058 29.9454 15.0058 29.9454H15.0058C15.0058 29.9454 15.0058 29.9454 15.0058 29.9454H15.0059C15.0059 29.9454 15.0059 29.9454 15.0059 29.9454C15.0059 29.9454 15.0059 29.9454 15.0059 29.9454H15.0059C15.0059 29.9454 15.0059 29.9454 15.0059 29.9454C15.0059 29.9454 15.0059 29.9454 15.0059 29.9454H15.0059C15.0059 29.9454 15.0059 29.9454 15.0059 29.9454C15.0059 29.9454 15.0059 29.9454 15.0059 29.9454H15.0059C15.0059 29.9454 15.0059 29.9454 15.0059 29.9454H15.0059C15.0059 29.9454 15.0059 29.9454 15.0059 29.9454C15.0059 29.9454 15.0059 29.9454 15.0059 29.9454H15.0059C15.0059 29.9454 15.0059 29.9454 15.0059 29.9454C15.0059 29.9454 15.0059 29.9454 15.0059 29.9454H15.0059C15.0059 29.9454 15.0059 29.9454 15.0059 29.9454C15.0059 29.9454 15.0059 29.9454 15.0059 29.9454H15.0059C15.0059 29.9454 15.0059 29.9454 15.0059 29.9454C15.0059 29.9454 15.0059 29.9454 15.0059 29.9454C15.0059 29.9454 15.0059 29.9454 15.0059 29.9454C15.0059 29.9454 15.0059 29.9454 15.0059 29.9454H15.0059C15.0059 29.9454 15.0059 29.9454 15.0059 29.9454C15.0059 29.9454 15.0059 29.9454 15.0059 29.9454H15.0059C15.0059 29.9454 15.0059 29.9454 15.0059 29.9454C15.0059 29.9454 15.0059 29.9454 15.0059 29.9454H15.0059C15.0059 29.9454 15.0059 29.9454 15.0059 29.9454C15.0059 29.9454 15.0059 29.9454 15.0059 29.9454H15.0059C15.0059 29.9454 15.0059 29.9454 15.0059 29.9454C15.0059 29.9454 15.0059 29.9454 15.0059 29.9454C15.0059 29.9454 15.0059 29.9454 15.0059 29.9454C15.0059 29.9454 15.0059 29.9454 15.0059 29.9454H15.0059C15.0059 29.9454 15.0059 29.9454 15.0059 29.9454C15.0059 29.9454 15.0059 29.9454 15.0059 29.9454H15.0059C15.0059 29.9454 15.0059 29.9454 15.0059 29.9454C15.0059 29.9454 15.0059 29.9454 15.0059 29.9454H15.0059C15.0059 29.9454 15.0059 29.9454 15.0059 29.9454C15.0059 29.9454 15.0059 29.9454 15.0059 29.9454H15.0059C15.0059 29.9454 15.0059 29.9454 15.0059 29.9454C15.0059 29.9454 15.0059 29.9454 15.0059 29.9454H15.0059C15.0059 29.9454 15.0059 29.9454 15.0059 29.9454H15.0059C15.0059 29.9454 15.0059 29.9454 15.0059 29.9454C15.0059 29.9454 15.0059 29.9454 15.0059 29.9454H15.0059C15.0059 29.9454 15.0059 29.9454 15.0059 29.9454C15.0059 29.9454 15.0059 29.9454 15.0059 29.9454H15.0059C15.0059 29.9454 15.0059 29.9454 15.0059 29.9454C15.0059 29.9454 15.0059 29.9454 15.0059 29.9454H15.0059C15.0059 29.9454 15.0059 29.9454 15.0059 29.9454C15.0059 29.9454 15.0059 29.9454 15.0059 29.9454H15.0059C15.0059 29.9454 15.0059 29.9454 15.0059 29.9454C15.0059 29.9454 15.0059 29.9454 15.0059 29.9454C15.0059 29.9454 15.0059 29.9454 15.0059 29.9454C15.0059 29.9454 15.0059 29.9454 15.0059 29.9454H15.0059C15.0059 29.9454 15.0059 29.9454 15.0059 29.9454C15.0059 29.9454 15.0059 29.9454 15.0059 29.9454H15.0059C15.0059 29.9454 15.0059 29.9454 15.0059 29.9454C15.0059 29.9454 15.0059 29.9454 15.0059 29.9454H15.0059C15.0059 29.9454 15.0059 29.9454 15.0059 29.9454C15.0059 29.9454 15.0059 29.9454 15.0059 29.9454H15.0059C15.0059 29.9454 15.0059 29.9454 15.0059 29.9454C15.0059 29.9454 15.0059 29.9454 15.0059 29.9454H15.0059C15.0059 29.9454 15.0059 29.9454 15.0059 29.9454H15.0059C15.0059 29.9454 15.0059 29.9454 15.0059 29.9454C15.0059 29.9454 15.0059 29.9454 15.0059 29.9454H15.0059C15.0059 29.9454 15.0059 29.9454 15.0059 29.9454C15.0059 29.9454 15.0059 29.9454 15.0059 29.9454H15.0059C15.0059 29.9454 15.0059 29.9454 15.0059 29.9454C15.0059 29.9454 15.0059 29.9454 15.0059 29.9454H15.0059C15.0059 29.9454 15.0059 29.9454 15.0059 29.9454C15.0059 29.9454 15.0059 29.9454 15.0059 29.9454H15.0059C15.0059 29.9454 15.0059 29.9454 15.0059 29.9454C15.0059 29.9454 15.0059 29.9454 15.0059 29.9454C15.0059 29.9454 15.0059 29.9454 15.0059 29.9454C15.0059 29.9454 15.0059 29.9454 15.0059 29.9454H15.0059C15.0059 29.9454 15.0059 29.9454 15.0059 29.9454C15.0059 29.9454 15.0059 29.9454 15.0059 29.9454H15.0059C15.006 29.9454 15.006 29.9454 15.006 29.9454C15.006 29.9454 15.006 29.9454 15.006 29.9454H15.006C15.006 29.9454 15.006 29.9454 15.006 29.9454C15.006 29.9454 15.006 29.9454 15.006 29.9454H15.006C15.006 29.9454 15.006 29.9454 15.006 29.9454C15.006 29.9454 15.006 29.9454 15.006 29.9454C15.006 29.9454 15.006 29.9454 15.006 29.9454C15.006 29.9454 15.006 29.9454 15.006 29.9454H15.006C15.006 29.9454 15.006 29.9454 15.006 29.9454C15.006 29.9454 15.006 29.9454 15.006 29.9454H15.006C15.006 29.9454 15.006 29.9454 15.006 29.9454C15.006 29.9454 15.006 29.9454 15.006 29.9454H15.006C15.006 29.9454 15.006 29.9454 15.006 29.9454C15.006 29.9454 15.006 29.9454 15.006 29.9454H15.006C15.006 29.9454 15.006 29.9454 15.006 29.9454H15.006C15.006 29.9454 15.006 29.9454 15.006 29.9454C15.006 29.9454 15.006 29.9454 15.006 29.9454H15.006C15.006 29.9454 15.006 29.9454 15.006 29.9454C15.006 29.9454 15.006 29.9454 15.006 29.9454H15.006C15.006 29.9454 15.006 29.9454 15.006 29.9454C15.006 29.9454 15.006 29.9454 15.006 29.9454H15.006C15.006 29.9454 15.006 29.9454 15.006 29.9454H15.006C15.006 29.9454 15.006 29.9454 15.006 29.9454C15.006 29.9454 15.006 29.9454 15.006 29.9454H15.006C15.006 29.9454 15.006 29.9454 15.006 29.9454C15.006 29.9454 15.006 29.9454 15.006 29.9454H15.006C15.006 29.9454 15.006 29.9454 15.006 29.9454C15.006 29.9454 15.006 29.9454 15.006 29.9454H15.006C15.006 29.9454 15.006 29.9454 15.006 29.9454H15.006C15.006 29.9454 15.006 29.9454 15.006 29.9454C15.006 29.9454 15.006 29.9454 15.006 29.9454H15.006C15.006 29.9454 15.006 29.9454 15.006 29.9454C15.006 29.9454 15.006 29.9454 15.006 29.9454H15.006C15.006 29.9454 15.006 29.9454 15.006 29.9454C15.006 29.9454 15.006 29.9454 15.006 29.9454C15.006 29.9454 15.006 29.9454 15.006 29.9454C15.006 29.9454 15.006 29.9454 15.006 29.9454H15.006C15.006 29.9454 15.006 29.9454 15.006 29.9454C15.006 29.9454 15.006 29.9454 15.006 29.9454H15.006C15.006 29.9454 15.006 29.9454 15.006 29.9454C15.006 29.9454 15.006 29.9454 15.006 29.9454V28.0779C15.006 28.0779 15.006 28.0779 15.006 28.0779C15.006 28.0779 15.006 28.0779 15.006 28.0779H15.006C15.006 28.0779 15.006 28.0779 15.006 28.0779C15.006 28.0779 15.006 28.0779 15.006 28.0779H15.006C15.006 28.0779 15.006 28.0779 15.006 28.0779C15.006 28.0779 15.006 28.0779 15.006 28.0779C15.006 28.0779 15.006 28.0779 15.006 28.0779C15.006 28.0779 15.006 28.0779 15.006 28.0779H15.006C15.006 28.0779 15.006 28.0779 15.006 28.0779C15.006 28.0779 15.006 28.0779 15.006 28.0779H15.006C15.006 28.0779 15.006 28.0779 15.006 28.0779C15.006 28.0779 15.006 28.0779 15.006 28.0779H15.006C15.006 28.0779 15.006 28.0779 15.006 28.0779H15.006C15.006 28.0779 15.006 28.0779 15.006 28.0779C15.006 28.0779 15.006 28.0779 15.006 28.0779H15.006C15.006 28.0779 15.006 28.0779 15.006 28.0779C15.006 28.0779 15.006 28.0779 15.006 28.0779H15.006C15.006 28.0779 15.006 28.0779 15.006 28.0779C15.006 28.0779 15.006 28.0779 15.006 28.0779H15.006C15.006 28.0779 15.006 28.0779 15.006 28.0779H15.006C15.006 28.0779 15.006 28.0779 15.006 28.0779C15.006 28.0779 15.006 28.0779 15.006 28.0779H15.006C15.006 28.0779 15.006 28.0779 15.006 28.0779C15.006 28.0779 15.006 28.0779 15.006 28.0779H15.006C15.006 28.0779 15.006 28.0779 15.006 28.0779C15.006 28.0779 15.006 28.0779 15.006 28.0779H15.006C15.006 28.0779 15.006 28.0779 15.006 28.0779H15.006C15.006 28.0779 15.006 28.0779 15.006 28.0779C15.006 28.0779 15.006 28.0779 15.006 28.0779H15.006C15.006 28.0779 15.006 28.0779 15.006 28.0779C15.006 28.0779 15.006 28.0779 15.006 28.0779H15.006C15.006 28.0779 15.006 28.0779 15.006 28.0779C15.006 28.0779 15.006 28.0779 15.006 28.0779H15.006C15.006 28.0779 15.006 28.0779 15.006 28.0779C15.006 28.0779 15.006 28.0779 15.006 28.0779C15.006 28.0779 15.006 28.0779 15.006 28.0779C15.006 28.0779 15.006 28.0779 15.006 28.0779H15.006C15.006 28.0779 15.006 28.0779 15.006 28.0779C15.006 28.0779 15.006 28.0779 15.006 28.0779H15.006C15.006 28.0779 15.006 28.0779 15.006 28.0779C15.006 28.0779 15.006 28.0779 15.0059 28.0779H15.0059C15.0059 28.0779 15.0059 28.0779 15.0059 28.0779C15.0059 28.0779 15.0059 28.0779 15.0059 28.0779H15.0059C15.0059 28.0779 15.0059 28.0779 15.0059 28.0779C15.0059 28.0779 15.0059 28.0779 15.0059 28.0779C15.0059 28.0779 15.0059 28.0779 15.0059 28.0779C15.0059 28.0779 15.0059 28.0779 15.0059 28.0779H15.0059C15.0059 28.0779 15.0059 28.0779 15.0059 28.0779C15.0059 28.0779 15.0059 28.0779 15.0059 28.0779H15.0059C15.0059 28.0779 15.0059 28.0779 15.0059 28.0779C15.0059 28.0779 15.0059 28.0779 15.0059 28.0779H15.0059C15.0059 28.0779 15.0059 28.0779 15.0059 28.0779C15.0059 28.0779 15.0059 28.0779 15.0059 28.0779H15.0059C15.0059 28.0779 15.0059 28.0779 15.0059 28.0779C15.0059 28.0779 15.0059 28.0779 15.0059 28.0779H15.0059C15.0059 28.0779 15.0059 28.0779 15.0059 28.0779H15.0059C15.0059 28.0779 15.0059 28.0779 15.0059 28.0779C15.0059 28.0779 15.0059 28.0779 15.0059 28.0779H15.0059C15.0059 28.0779 15.0059 28.0779 15.0059 28.0779C15.0059 28.0779 15.0059 28.0779 15.0059 28.0779H15.0059C15.0059 28.0779 15.0059 28.0779 15.0059 28.0779C15.0059 28.0779 15.0059 28.0779 15.0059 28.0779H15.0059C15.0059 28.0779 15.0059 28.0779 15.0059 28.0779C15.0059 28.0779 15.0059 28.0779 15.0059 28.0779H15.0059C15.0059 28.0779 15.0059 28.0779 15.0059 28.0779C15.0059 28.0779 15.0059 28.0779 15.0059 28.0779C15.0059 28.0779 15.0059 28.0779 15.0059 28.0779C15.0059 28.0779 15.0059 28.0779 15.0059 28.0779H15.0059C15.0059 28.0779 15.0059 28.0779 15.0059 28.0779C15.0059 28.0779 15.0059 28.0779 15.0059 28.0779H15.0059C15.0059 28.0779 15.0059 28.0779 15.0059 28.0779C15.0059 28.0779 15.0059 28.0779 15.0059 28.0779H15.0059C15.0059 28.0779 15.0059 28.0779 15.0059 28.0779C15.0059 28.0779 15.0059 28.0779 15.0059 28.0779H15.0059C15.0059 28.0779 15.0059 28.0779 15.0059 28.0779C15.0059 28.0779 15.0059 28.0779 15.0059 28.0779H15.0059C15.0059 28.0779 15.0059 28.0779 15.0059 28.0779H15.0059C15.0059 28.0779 15.0059 28.0779 15.0059 28.0779C15.0059 28.0779 15.0059 28.0779 15.0059 28.0779H15.0059C15.0059 28.0779 15.0059 28.0779 15.0059 28.0779C15.0059 28.0779 15.0059 28.0779 15.0059 28.0779H15.0059C15.0059 28.0779 15.0059 28.0779 15.0059 28.0779C15.0059 28.0779 15.0059 28.0779 15.0059 28.0779H15.0059C15.0059 28.0779 15.0059 28.0779 15.0059 28.0779C15.0059 28.0779 15.0059 28.0779 15.0059 28.0779H15.0059C15.0059 28.0779 15.0059 28.0779 15.0059 28.0779C15.0059 28.0779 15.0059 28.0779 15.0059 28.0779C15.0059 28.0779 15.0059 28.0779 15.0059 28.0779C15.0059 28.0779 15.0059 28.0779 15.0059 28.0779H15.0059C15.0059 28.0779 15.0059 28.0779 15.0059 28.0779C15.0059 28.0779 15.0059 28.0779 15.0059 28.0779H15.0059C15.0059 28.0779 15.0059 28.0779 15.0059 28.0779C15.0059 28.0779 15.0059 28.0779 15.0059 28.0779H15.0059C15.0059 28.0779 15.0059 28.0779 15.0059 28.0779C15.0059 28.0779 15.0059 28.0779 15.0059 28.0779H15.0059C15.0059 28.0779 15.0059 28.0779 15.0059 28.0779C15.0059 28.0779 15.0059 28.0779 15.0059 28.0779C15.0059 28.0779 15.0059 28.0779 15.0059 28.0779C15.0059 28.0779 15.0059 28.0779 15.0059 28.0779H15.0059C15.0059 28.0779 15.0059 28.0779 15.0059 28.0779C15.0059 28.0779 15.0059 28.0779 15.0059 28.0779H15.0059C15.0059 28.0779 15.0059 28.0779 15.0059 28.0779C15.0059 28.0779 15.0059 28.0779 15.0059 28.0779H15.0059C15.0059 28.0779 15.0059 28.0779 15.0059 28.0779C15.0059 28.0779 15.0059 28.0779 15.0059 28.0779H15.0059C15.0059 28.0779 15.0059 28.0779 15.0059 28.0779H15.0059C15.0059 28.0779 15.0059 28.0779 15.0059 28.0779C15.0059 28.0779 15.0059 28.0779 15.0059 28.0779H15.0059C15.0059 28.0779 15.0059 28.0779 15.0059 28.0779C15.0059 28.0779 15.0059 28.0779 15.0059 28.0779H15.0059C15.0059 28.0779 15.0059 28.0779 15.0059 28.0779C15.0059 28.0779 15.0059 28.0779 15.0059 28.0779H15.0058C15.0058 28.0779 15.0058 28.0779 15.0058 28.0779H15.0058C15.0058 28.0779 15.0058 28.0779 15.0058 28.0779C15.0058 28.0779 15.0058 28.0779 15.0058 28.0779H15.0058C15.0058 28.0779 15.0058 28.0779 15.0058 28.0779C15.0058 28.0779 15.0058 28.0779 15.0058 28.0779H15.0058C15.0058 28.0779 15.0058 28.0779 15.0058 28.0779C15.0058 28.0779 15.0058 28.0779 15.0058 28.0779H15.0058C15.0058 28.0779 15.0058 28.0779 15.0058 28.0779H15.0058C15.0058 28.0779 15.0058 28.0779 15.0058 28.0779C15.0058 28.0779 15.0058 28.0779 15.0058 28.0779H15.0058C15.0058 28.0779 15.0058 28.0779 15.0058 28.0779C15.0058 28.0779 15.0058 28.0779 15.0058 28.0779H15.0058C15.0058 28.0779 15.0058 28.0779 15.0058 28.0779C15.0058 28.0779 15.0058 28.0779 15.0058 28.0779C15.0058 28.0779 15.0058 28.0779 15.0058 28.0779C15.0058 28.0779 15.0058 28.0779 15.0058 28.0779H15.0058C15.0058 28.0779 15.0058 28.0779 15.0058 28.0779C15.0058 28.0779 15.0058 28.0779 15.0058 28.0779H15.0058C15.0058 28.0779 15.0058 28.0779 15.0058 28.0779C15.0058 28.0779 15.0058 28.0779 15.0058 28.0779V29.9454ZM15.0057 29.9454H15.0058V28.0779H15.0057V29.9454ZM15.9394 43.5777V29.0116H14.072V43.5777H15.9394ZM12.9515 42.4572C12.9515 43.5917 13.8712 44.5114 15.0057 44.5114V42.644C14.9026 42.644 14.819 42.5604 14.819 42.4572H12.9515ZM5.55397 26.9063C8.82963 30.4938 12.9515 35.04 12.9515 42.4572H14.819C14.819 34.2519 10.201 29.2262 6.93302 25.6471L5.55397 26.9063ZM3.06078 23.9793C3.72903 24.9096 4.62239 25.886 5.55397 26.9063L6.93302 25.6471C5.97866 24.6019 5.16852 23.7126 4.5775 22.8898L3.06078 23.9793ZM0.0662786 15.0058C0.0662786 18.3801 1.18604 21.4955 3.07383 23.997L4.56445 22.8721C2.91273 20.6834 1.93372 17.9603 1.93372 15.0058H0.0662786ZM15.0058 0.0662786C6.75494 0.0662786 0.0662786 6.75494 0.0662786 15.0058H1.93372C1.93372 7.7863 7.7863 1.93372 15.0058 1.93372V0.0662786ZM29.9454 15.0058C29.9454 6.75494 23.2567 0.0662786 15.0058 0.0662786V1.93372C22.2253 1.93372 28.0779 7.7863 28.0779 15.0058H29.9454ZM26.9396 23.9946C28.8263 21.4935 29.9454 18.379 29.9454 15.0058H28.0779C28.0779 17.9593 27.0995 20.6816 25.4488 22.87L26.9396 23.9946ZM24.4578 26.9063C25.3901 25.8852 26.2842 24.9079 26.9527 23.9768L25.4357 22.8877C24.8446 23.7111 24.0339 24.601 23.0787 25.6471L24.4578 26.9063ZM17.0602 42.4572C17.0602 35.04 21.1821 30.4938 24.4578 26.9063L23.0787 25.6471C19.8107 29.2262 15.1928 34.2519 15.1928 42.4572H17.0602ZM15.006 44.5114C16.1405 44.5114 17.0602 43.5917 17.0602 42.4572H15.1928C15.1928 42.5604 15.1091 42.644 15.006 42.644V44.5114ZM14.0723 29.0116V43.5777H15.9397V29.0116H14.0723Z" fill="url(#paint1_linear_128_649)" mask="url(#path-2-outside-1_128_649)"/>
<path fill-rule="evenodd" clip-rule="evenodd" d="M14.0841 6.70604L11.816 14.0678H16.2293L9.05649 24.9829L11.2679 17.7062H6.93018L14.0841 6.70604ZM15.2471 16.9785L16.6835 14.6348C18.3468 14.8616 19.7454 14.4364 20.4164 12.896C21.3519 9.80572 19.5375 8.89849 14.2264 9.04025L14.7556 6.74382C21.3047 6.38471 23.5255 8.67169 22.7978 12.7637C22.3253 15.5137 19.3485 17.5172 15.2471 16.9785Z" fill="white"/>
<defs>
<filter id="filter0_f_128_649" x="7.14951" y="40.4417" width="15.7122" height="10.1421" filterUnits="userSpaceOnUse" color-interpolation-filters="sRGB">
<feFlood flood-opacity="0" result="BackgroundImageFix"/>
<feBlend mode="normal" in="SourceGraphic" in2="BackgroundImageFix" result="shape"/>
<feGaussianBlur stdDeviation="1.12691" result="effect1_foregroundBlur_128_649"/>
</filter>
<linearGradient id="paint0_linear_128_649" x1="15.0058" y1="1" x2="15.0058" y2="43.5777" gradientUnits="userSpaceOnUse">
<stop stop-color="#EB5757"/>
<stop offset="0.682292" stop-color="#CB0000"/>
</linearGradient>
<linearGradient id="paint1_linear_128_649" x1="15.0058" y1="1" x2="15.0058" y2="43.5777" gradientUnits="userSpaceOnUse">
<stop stop-color="white"/>
<stop offset="1" stop-color="white" stop-opacity="0.35"/>
</linearGradient>
</defs>
</svg>
