<svg width="18" height="18" viewBox="0 0 18 18" fill="none" xmlns="http://www.w3.org/2000/svg">
<path d="M17.1636 0.0478986C17.2739 0.000392757 17.396 -0.0129183 17.5139 0.00968784C17.6319 0.0322939 17.7403 0.0897767 17.8252 0.174699C17.9102 0.259621 17.9676 0.368073 17.9903 0.486024C18.0129 0.603975 17.9995 0.725996 17.952 0.836299L10.752 17.6363C10.7041 17.7482 10.6233 17.8428 10.5203 17.9077C10.4174 17.9725 10.2971 18.0046 10.1755 17.9995C10.0539 17.9944 9.93673 17.9525 9.83952 17.8792C9.74232 17.806 9.66968 17.705 9.63124 17.5895L7.32604 10.6739L0.410442 8.3699C0.29459 8.33169 0.193136 8.25908 0.119606 8.16175C0.0460758 8.06441 0.00396156 7.94697 -0.00112152 7.82509C-0.00620651 7.70321 0.0259819 7.58267 0.0911522 7.47955C0.156321 7.37643 0.251375 7.29562 0.363642 7.2479L17.1636 0.0478986Z" fill="white"/>
</svg>
