<svg width="20" height="21" viewBox="0 0 20 21" fill="none" xmlns="http://www.w3.org/2000/svg">
<path d="M16.875 4.875H3.125" stroke="white" stroke-width="1.5" stroke-linecap="round" stroke-linejoin="round"/>
<path d="M8.125 8.625V13.625" stroke="white" stroke-width="1.2" stroke-linecap="round" stroke-linejoin="round"/>
<path d="M11.875 8.625V13.625" stroke="white" stroke-width="1.2" stroke-linecap="round" stroke-linejoin="round"/>
<path d="M15.625 4.875V16.75C15.625 16.9158 15.5592 17.0747 15.4419 17.1919C15.3247 17.3092 15.1658 17.375 15 17.375H5C4.83424 17.375 4.67527 17.3092 4.55806 17.1919C4.44085 17.0747 4.375 16.9158 4.375 16.75V4.875" stroke="white" stroke-width="1.5" stroke-linecap="round" stroke-linejoin="round"/>
<path d="M13.125 4.875V3.625C13.125 3.29348 12.9933 2.97554 12.7589 2.74112C12.5245 2.5067 12.2065 2.375 11.875 2.375H8.125C7.79348 2.375 7.47554 2.5067 7.24112 2.74112C7.0067 2.97554 6.875 3.29348 6.875 3.625V4.875" stroke="white" stroke-width="1.5" stroke-linecap="round" stroke-linejoin="round"/>
</svg>
