<svg width="25" height="24" viewBox="0 0 25 24" fill="none" xmlns="http://www.w3.org/2000/svg">
<path d="M8.5625 5.4375L12.5 1.5L16.4375 5.4375" stroke="#27AE60" stroke-width="1.5" stroke-linecap="round" stroke-linejoin="round"/>
<path d="M12.5 12V1.5" stroke="#27AE60" stroke-width="1.5" stroke-linecap="round" stroke-linejoin="round"/>
<path d="M17 9H19.25C19.4489 9 19.6397 9.07902 19.7803 9.21967C19.921 9.36032 20 9.55109 20 9.75V19.5C20 19.6989 19.921 19.8897 19.7803 20.0303C19.6397 20.171 19.4489 20.25 19.25 20.25H5.75C5.55109 20.25 5.36032 20.171 5.21967 20.0303C5.07902 19.8897 5 19.6989 5 19.5V9.75C5 9.55109 5.07902 9.36032 5.21967 9.21967C5.36032 9.07902 5.55109 9 5.75 9H8" stroke="#27AE60" stroke-width="1.5" stroke-linecap="round" stroke-linejoin="round"/>
</svg>
